<?xml version="1.0" encoding="utf-8" ?>
<svg baseProfile="full" height="200mm" version="1.1" viewBox="0,0,200,200" width="200mm" xmlns="http://www.w3.org/2000/svg" xmlns:ev="http://www.w3.org/2001/xml-events" xmlns:xlink="http://www.w3.org/1999/xlink"><defs /><rect fill="#1a1a1a" height="200" width="200" x="0" y="0" /><rect fill="#1a1a1a" height="200" width="180" x="10" y="0" /><text alignment-baseline="middle" fill="#e1ed5e" style="dominant-baseline: central; font-size:9.0px; font-family:Arial;" text-anchor="middle" x="100.0" y="100.0">2019</text><line stroke="#e1ed5e" stroke-width="0.3" x1="100.0" x2="100.0" y1="15.0" y2="10.0" /><path d="M 100.0 14.0 a86.0,86.0 0 0,1 42.46469731375804,11.215312516191453" fill="none" id="id13" stroke="none" /><text fill="#e1ed5e" style="font-size:6.75px; font-family:Arial;" text-anchor="middle"><textPath startOffset="22.20632615414155" xlink:href="#id13">January</textPath></text><line stroke="#e1ed5e" stroke-width="0.3" x1="143.23703022742887" x2="145.7803849466894" y1="26.81831364943548" y2="22.513508569990506" /><path d="M 143.74570117128098 25.957352633546492 a86.0,86.0 0 0,1 28.547481713284135,27.462654790039103" fill="none" id="id14" stroke="none" /><text fill="#e1ed5e" style="font-size:6.75px; font-family:Arial;" text-anchor="middle"><textPath startOffset="19.985693538727396" xlink:href="#id14">February</textPath></text><line stroke="#e1ed5e" stroke-width="0.3" x1="172.23445277983987" x2="176.4835382374775" y1="55.19839476539836" y2="52.563006222186495" /><path d="M 173.08426987136738 54.67131705675599 a86.0,86.0 0 0,1 12.851231095245387,41.99856678651699" fill="none" id="id15" stroke="none" /><text fill="#e1ed5e" style="font-size:6.75px; font-family:Arial;" text-anchor="middle"><textPath startOffset="22.20632615414155" xlink:href="#id15">March</textPath></text><path d="M 119.61058180528143 92.48833698450437 l 52.19868892589449 -19.9942543752784 a76.89698859156582,76.89698859156582 0 0,0 0.46282983409603756,1.240153850861079 l -52.53512334849215 19.092777387387986" fill="red" stroke="none" /><line stroke="#e1ed5e" stroke-width="0.3" x1="184.98032266829074" x2="189.97916517819016" y1="98.17113171792111" y2="98.06355123074" /><path d="M 185.9800911702706 98.14961562048488 a86.0,86.0 0 0,1 -9.607161424134198,41.387399972396054" fill="none" id="id16" stroke="none" /><text fill="#e1ed5e" style="font-size:6.75px; font-family:Arial;" text-anchor="middle"><textPath startOffset="21.466115282336823" xlink:href="#id16">April</textPath></text><path d="M 120.99980553446 99.90962569577887 l 60.58747536542251 -0.2607429350562184 a81.58803642662355,81.58803642662355 0 0,0 -0.006044129972048816,1.4044429457236631 l -60.582986938160964 -0.7822094888711294" fill="red" stroke="none" /><path d="M 120.9904718944345 100.63252640178507 l 59.75868472696783 1.8007668439211968 a80.7858107039062,80.7858107039062 0 0,0 -0.05384900217814885,1.3896034735557317 l -59.71883359193848 -2.8291475644909343" fill="red" stroke="none" /><path d="M 120.70491114924044 103.5080841355445 l 59.68961764451244 10.113359057960162 a81.54032115857427,81.54032115857427 0 0,0 -0.2463820700150792,1.3818414933108571 l -59.50668913215817 -11.139319302004237" fill="red" stroke="none" /><path d="M 120.23288151984713 105.62410040840565 l 58.67934500543684 16.310999888292105 a81.90413982335643,81.90413982335643 0 0,0 -0.389268391613401,1.3550943384215552 l -58.38988397693734 -17.318651702218244" fill="red" stroke="none" /><path d="M 119.9155931802556 106.66101706037122 l 49.1112619426111 16.42587045714568 a72.78537698878606,72.78537698878606 0 0,0 -0.40762989081594375,1.184763270033475 l -48.821241220851924 -17.268806430268455" fill="red" stroke="none" /><line stroke="#e1ed5e" stroke-width="0.3" x1="174.80103733775053" x2="179.2010983576182" y1="140.37084112569926" y2="142.7455964860345" /><path d="M 175.68104954172406 140.8457921977663 a86.0,86.0 0 0,1 -30.038265399797805,32.042727171017184" fill="none" id="id17" stroke="none" /><text fill="#e1ed5e" style="font-size:6.75px; font-family:Arial;" text-anchor="middle"><textPath startOffset="22.206326154141568" xlink:href="#id17">May</textPath></text><path d="M 112.04921762599082 117.19931262002967 l 33.72080580558161 48.13380410678885 a79.77036533805511,79.77036533805511 0 0,0 -1.131383529859862,0.7781759083434299 l -32.887265391098865 -48.70712080449738" fill="red" stroke="none" /><path d="M 111.45004920935366 117.60387380957326 l 31.148223831934196 47.88882490406904 a78.12750124569476,78.12750124569476 0 0,0 -1.1336605423887762,0.7235557954446443 l -30.319281487498486 -48.4178951283375" fill="red" stroke="none" /><line stroke="#e1ed5e" stroke-width="0.3" x1="143.8653032363475" x2="146.44561519142675" y1="172.8068346515853" y2="177.08958963109032" /><path d="M 144.38136562736335 173.6633856474863 a86.0,86.0 0 0,1 -40.68145358897372,12.25698825130547" fill="none" id="id18" stroke="none" /><text fill="#e1ed5e" style="font-size:6.75px; font-family:Arial;" text-anchor="middle"><textPath startOffset="21.466115282336833" xlink:href="#id18">June</textPath></text><path d="M 110.8373102113329 117.98757091392108 l 32.51193063399873 53.96271274176323 a84.0,84.0 0 0,0 -1.2449285158864716,0.735525710825002 l -31.578234247083873 -54.514357024881974" fill="red" stroke="none" /><line stroke="#e1ed5e" stroke-width="0.3" x1="102.19456741930631" x2="102.32365962044197" y1="184.97166512339345" y2="189.96999836594603" /><path d="M 102.22038585953345 185.97133177190398 a86.0,86.0 0 0,1 -42.740103519485714,-10.115201625700543" fill="none" id="id19" stroke="none" /><text fill="#e1ed5e" style="font-size:6.75px; font-family:Arial;" text-anchor="middle"><textPath startOffset="22.20632615414155" xlink:href="#id19">July</textPath></text><path d="M 96.93821686468263 120.77559828337769 l -7.949596526538583 53.94164663238997 a75.52428198838003,75.52428198838003 0 0,0 -1.2845030929984063,-0.20061296598601572 l 8.876935483145507 -53.79681535905685" fill="red" stroke="none" /><line stroke="#e1ed5e" stroke-width="0.3" x1="58.666819895761336" x2="56.23545636021788" y1="174.27360380694188" y2="178.64263932499728" /><path d="M 58.180547188652646 175.14741091055294 a86.0,86.0 0 0,1 -31.652253787137756,-30.449443065178592" fill="none" id="id20" stroke="none" /><text fill="#e1ed5e" style="font-size:6.75px; font-family:Arial;" text-anchor="middle"><textPath startOffset="22.20632615414155" xlink:href="#id20">August</textPath></text><line stroke="#e1ed5e" stroke-width="0.3" x1="26.63291911575756" x2="22.317208475507996" y1="142.92168965132927" y2="145.44649492493687" /><path d="M 25.769776987707644 143.4266507060508 a86.0,86.0 0 0,1 -11.730757126820373,-40.83630448921669" fill="none" id="id21" stroke="none" /><text fill="#e1ed5e" style="font-size:6.75px; font-family:Arial;" text-anchor="middle"><textPath startOffset="21.46611528233685" xlink:href="#id21">September</textPath></text><line stroke="#e1ed5e" stroke-width="0.3" x1="15.007084014347285" x2="10.007500721073583" y1="101.09737516637583" y2="101.16192664675087" /><path d="M 14.007167355692545 101.11028546245083 a86.0,86.0 0 0,1 10.666146001902534,-42.60595125391555" fill="none" id="id22" stroke="none" /><text fill="#e1ed5e" style="font-size:6.75px; font-family:Arial;" text-anchor="middle"><textPath startOffset="22.20632615414155" xlink:href="#id22">October</textPath></text><path d="M 79.00019446554 99.90962569577889 l -56.99005253490917 -0.24526114477183175 a77.99058028271726,77.99058028271726 0 0,0 0.01733245157450835,-1.3424174754774358 l 56.97738707621694 1.2262148783097395" fill="red" stroke="none" /><path d="M 79.3925641242962 95.95851677861259 l -55.79969967996514 -10.943309559483641 a77.86266357188157,77.86266357188157 0 0,0 0.26925911669161634,-1.3130030784172526 l 55.60306126735853 11.902188294064297" fill="red" stroke="none" /><path d="M 79.62865764111835 94.90015583598534 l -58.37785952979105 -14.614549251874447 a81.17939458914056,81.17939458914056 0 0,0 0.35101841929722316,-1.3526171589771192 l 58.11764477862352 15.61726283640043" fill="red" stroke="none" /><path d="M 80.14247586403 93.16781622104843 l -53.47798120290293 -18.399645051606164 a77.55476471141166,77.55476471141166 0 0,0 0.4451899025943227,-1.258611804551181 l 53.1533382194988 19.317454482583955" fill="red" stroke="none" /><path d="M 80.95270993114464 91.15688171328213 l -52.56396653855831 -24.403963610529775 a78.95277403343812,78.95277403343812 0 0,0 0.5829038422546813,-1.227744150801836 l 52.13610450246188 25.30515017697214" fill="red" stroke="none" /><line stroke="#e1ed5e" stroke-width="0.3" x1="26.266209847984243" x2="21.928928074336255" y1="57.71137044288968" y2="55.22380399835378" /><path d="M 25.398753493254645 57.2138571539825 a86.0,86.0 0 0,1 29.58750427330803,-30.4925239686951" fill="none" id="id23" stroke="none" /><text fill="#e1ed5e" style="font-size:6.75px; font-family:Arial;" text-anchor="middle"><textPath startOffset="21.46611528233685" xlink:href="#id23">November</textPath></text><path d="M 82.7489923806493 88.02491185347247 l -46.46698542633163 -32.25586926061972 a77.56519987031875,77.56519987031875 0 0,0 0.7708037312059707,-1.0902472141993558 l 45.904869075321784 33.05094297515086" fill="red" stroke="none" /><path d="M 83.17141714833178 87.43820079747577 l -45.904802385486164 -34.26592215641435 a78.28354304056256,78.28354304056256 0 0,0 0.8153568736891692,-1.072914070716515 l 45.30816957157288 35.05102100301189" fill="red" stroke="none" /><line stroke="#e1ed5e" stroke-width="0.3" x1="56.76296977257108" x2="54.21961505331056" y1="26.818313649435495" y2="22.513508569990535" /><path d="M 56.25429882871898 25.957352633546506 a86.0,86.0 0 0,1 42.26535254187918,-11.944610805530505" fill="none" id="id24" stroke="none" /><text fill="#e1ed5e" style="font-size:6.75px; font-family:Arial;" text-anchor="middle"><textPath startOffset="22.20632615414155" xlink:href="#id24">December</textPath></text></svg>