<?xml version="1.0" encoding="utf-8" ?>
<svg baseProfile="full" height="200mm" version="1.1" viewBox="0,0,200,200" width="200mm" xmlns="http://www.w3.org/2000/svg" xmlns:ev="http://www.w3.org/2001/xml-events" xmlns:xlink="http://www.w3.org/1999/xlink"><defs /><rect fill="#1a1a1a" height="200" width="200" x="0" y="0" /><rect fill="#1a1a1a" height="200" width="180" x="10" y="0" /><text alignment-baseline="middle" fill="#e1ed5e" style="dominant-baseline: central; font-size:9.0px; font-family:Arial;" text-anchor="middle" x="100.0" y="100.0">2024</text><line stroke="#e1ed5e" stroke-width="0.3" x1="100.0" x2="100.0" y1="15.0" y2="10.0" /><path d="M 100.0 14.0 a86.0,86.0 0 0,1 42.35913384403234,11.155469271406648" fill="none" id="id73" stroke="none" /><text fill="#e1ed5e" style="font-size:6.75px; font-family:Arial;" text-anchor="middle"><textPath startOffset="22.145653131862478" xlink:href="#id73">January</textPath></text><path d="M 102.15924093988457 79.11130261209362 l 0.7474631567753365 -7.231027997887031 a28.26955755716692,28.26955755716692 0 0,0 0.48228416906489485,0.054040947092232415 l -0.871483227441028 7.217131290287828" fill="#ff4e07" stroke="none" /><path d="M 104.29559338865022 79.4440306129975 l 0.7500281554962515 -3.589156237298216 a24.666685796434404,24.666685796434404 0 0,0 0.41373970452148495,0.09017264291742759 l -0.8115302766368705 3.5757521362470697" fill="#ff1a02" stroke="none" /><path d="M 109.06512990194946 81.05736502329252 l 1.196529411615518 -2.500286275903574 a23.77184308616717,23.77184308616717 0 0,0 0.3665841780764586,0.17931469126462107 l -1.2392738389540439 2.4793778345417317" fill="#ff0d01" stroke="none" /><line stroke="#e1ed5e" stroke-width="0.3" x1="143.13028292997686" x2="145.6673583964461" y1="26.7553504044142" y2="22.446841604673864" /><path d="M 143.63769802327073 25.89364864446614 a86.0,86.0 0 0,1 29.32050498858742,28.57503671076993" fill="none" id="id74" stroke="none" /><text fill="#e1ed5e" style="font-size:6.75px; font-family:Arial;" text-anchor="middle"><textPath startOffset="20.669276256404974" xlink:href="#id74">February</textPath></text><line stroke="#e1ed5e" stroke-width="0.3" x1="172.87174338648825" x2="177.1583165268699" y1="56.24261187166439" y2="53.66864786411523" /><path d="M 173.72905801456457 55.72781907015455 a86.0,86.0 0 0,1 12.242430191666344,42.057860355516425" fill="none" id="id75" stroke="none" /><text fill="#e1ed5e" style="font-size:6.75px; font-family:Arial;" text-anchor="middle"><textPath startOffset="22.145653131862474" xlink:href="#id75">March</textPath></text><path d="M 119.0197475246899 91.09779779509293 l 4.289058208450373 -2.0074958087996086 a25.73561608851726,25.73561608851726 0 0,0 0.1838448676097079,0.4017342144432853 l -4.322887540915133 1.9335726121416394" fill="#ff2a04" stroke="none" /><path d="M 119.71291397450082 92.76114493625339 l 5.132472444458153 -1.8847149737560114 a26.467579347885348,26.467579347885348 0 0,0 0.1529571870956098,0.42784847513435453 l -5.164069801597706 1.79633154224074" fill="#ff3405" stroke="none" /><path d="M 120.26092885502905 94.47779374421319 l 2.5122605293116327 -0.6847277787902332 a23.6039018987251,23.6039018987251 0 0,0 0.10319459468362686,0.3918466845127374 l -2.52364460479999 0.6415005899046972" fill="#ff0b01" stroke="none" /><path d="M 120.592083275326 95.88100663000786 l 5.41065338708318 -1.0822822116024242 a26.517835160704397,26.517835160704397 0 0,0 0.0854552488559739,0.4471379719654672 l -5.428434928221311 0.9892416746036424" fill="#ff3505" stroke="none" /><line stroke="#e1ed5e" stroke-width="0.3" x1="184.99686870605535" x2="189.99668451229388" y1="99.2704041080226" y2="99.22748670261217" /><path d="M 185.99683186730306 99.26182062694052 a86.0,86.0 0 0,1 -10.086455211305974,41.156179273409016" fill="none" id="id76" stroke="none" /><text fill="#e1ed5e" style="font-size:6.75px; font-family:Arial;" text-anchor="middle"><textPath startOffset="21.40746469413373" xlink:href="#id76">April</textPath></text><path d="M 120.77682067341334 103.0534771498775 l 4.880061108767794 0.7172009288551174 a25.932481484776055,25.932481484776055 0 0,0 -0.06850930371082763,0.43987887508195594 l -4.867030312918699 -0.8008679858685239" fill="#ff2d04" stroke="none" /><path d="M 120.51834098615036 104.47187691870673 l 5.344293723199499 1.1647639428400482 a26.469748663546603,26.469748663546603 0 0,0 -0.10057135431664554,0.44313594377936083 l -5.323511507325189 -1.256334220558426" fill="#ff3405" stroke="none" /><path d="M 120.35273937422433 105.17358676015961 l 7.1740957812236275 1.8236270935037218 a28.402247365113617,28.402247365113617 0 0,0 -0.12417262270969345,0.4715036738621327 l -7.141733677709204 -1.9465112717386577" fill="#ff5007" stroke="none" /><path d="M 120.16314734710363 105.8691983318838 l 6.8887392882450875 2.005211609246027 a28.174649996987064,28.174649996987064 0 0,0 -0.13916087525224868,0.46322129409296997 l -6.8533020929892094 -2.1231705069297204" fill="#ff4d07" stroke="none" /><path d="M 120.05942366710727 106.21446072829308 l 6.712568339567865 2.079570830373891 a28.0273173083269,28.0273173083269 0 0,0 -0.14632299519521355,0.45835469839223425 l -6.6758806285953955 -2.1944945624575087" fill="#ff4a06" stroke="none" /><path d="M 119.94978838288452 106.5578916946017 l 3.173503412029284 1.0431936053212336 a24.3405653420259,24.3405653420259 0 0,0 -0.13389000686544883,0.39582201460257754 l -3.1551279835914707 -1.0975172943979716" fill="#ff1502" stroke="none" /><path d="M 119.83427380445688 106.89939002012753 l 4.020615496380322 1.3985787785314923 a25.25692043260057,25.25692043260057 0 0,0 -0.14596074137686005,0.4082781712541118 l -3.9960145849595183 -1.4673919061665255" fill="#ff2303" stroke="none" /><path d="M 119.4528033332814 107.91128576633889 l 7.0713921137726325 2.875873611603186 a28.633821811952473,28.633821811952473 0 0,0 -0.1890843360697747,0.45373357283185844 l -7.020981933166372 -2.9968396938763227" fill="#ff5307" stroke="none" /><path d="M 119.31412917781788 108.2440532568976 l 7.051740710698715 3.009968786974909 a28.667265428396803,28.667265428396803 0 0,0 -0.19707532490889973,0.4509469108001468 l -6.999031503772849 -3.1305777675509003" fill="#ff5407" stroke="none" /><path d="M 118.8641267826498 109.22738970284198 l 6.866005829294518 3.3585075110476836 a28.643402956123012,28.643402956123012 0 0,0 -0.21984505592282047,0.43983738021023167 l -6.8073408601599645 -3.475876747421661" fill="#ff5307" stroke="none" /><path d="M 118.70294669586154 109.54985784667822 l 4.6615013818077 2.380195820063369 a26.234016361690344,26.234016361690344 0 0,0 -0.2082380402796638,0.39932389945105995 l -4.619955272553087 -2.4598659626189314" fill="#ff3104" stroke="none" /><line stroke="#e1ed5e" stroke-width="0.3" x1="174.33088141563837" x2="178.70328620479359" y1="141.23008692659167" y2="143.65538615756765" /><path d="M 175.20536237346943 141.71514677278685 a86.0,86.0 0 0,1 -30.301960400862466,31.631185727798858" fill="none" id="id77" stroke="none" /><text fill="#e1ed5e" style="font-size:6.75px; font-family:Arial;" text-anchor="middle"><textPath startOffset="22.145653131862474" xlink:href="#id77">May</textPath></text><path d="M 118.36410011445183 110.18625677009912 l 4.9169313296223125 2.7273389238965584 a26.622685417665004,26.622685417665004 0 0,0 -0.22510955541472363,0.39774701483681923 l -4.86938840918621 -2.8113427088325005" fill="#ff3605" stroke="none" /><path d="M 118.18653347947321 110.5 l 54.559600438419636 31.499999999999986 a84.0,84.0 0 0,0 -0.7317051594809385,1.242595326825802 l -54.010821568808936 -32.43194649511934" fill="#4dd2ff" stroke="none" /><path d="M 117.81537515405839 111.11811171558189 l 13.007994087685791 8.117950377799009 a36.333265422657874,36.333265422657874 0 0,0 -0.3347544792735753,0.5262896426591794 l -12.866721916786325 -8.340053695136861" fill="#ffbb11" stroke="none" /><path d="M 117.62189284568427 111.42229804090321 l 12.486722878816648 8.093742909743044 a35.88042077837112,35.88042077837112 0 0,0 -0.33945536809063326,0.51397869256168 l -12.345943071805287 -8.306901480643786" fill="#ffb510" stroke="none" /><path d="M 117.21940702142032 112.02048342749411 l 12.802010525814854 8.936797601260809 a36.61274559034942,36.61274559034942 0 0,0 -0.36418332167560746,0.5122694498636117 l -12.646712105609286 -9.155244277833924" fill="#ffbf11" stroke="none" /><path d="M 116.79662413953412 112.60449989151573 l 4.666995446317262 3.50220038908616 a26.834916799857673,26.834916799857673 0 0,0 -0.2796556418814576,0.36607821228953646 l -4.6061878270815 -3.5817995146165735" fill="#ff3a05" stroke="none" /><path d="M 116.1254893667686 113.45245675266167 l 4.850181767489204 4.0461941331316975 a27.316324100350936,27.316324100350936 0 0,0 -0.303478424648262,0.3574968211500079 l -4.780008779333827 -4.128857736731262" fill="#ff4006" stroke="none" /><path d="M 115.89218393027572 113.72728997021213 l 11.60198696451587 10.021520012055849 a36.33091533069151,36.33091533069151 0 0,0 -0.41173123261723743,0.46847456225851064 l -11.428244667940046 -10.219206852125652" fill="#ffbb11" stroke="none" /><path d="M 115.16444852881244 114.52719865689866 l 9.666081106274484 9.259887044210295 a34.385762287767186,34.385762287767186 0 0,0 -0.4119957925758591,0.4227439780311645 l -9.505698512547818 -9.424453714309196" fill="#ffa20e" stroke="none" /><path d="M 113.86319453409587 115.77377054828091 l 4.747936377119494 5.4022800305026095 a28.192185298582196,28.192185298582196 0 0,0 -0.3662574599895795,0.3163644706787057 l -4.654499437367059 -5.482988633646033" fill="#ff4d07" stroke="none" /><path d="M 112.7482090630111 116.68781488649013 l 5.896088302008892 7.718168854306824 a30.71256854434902,30.71256854434902 0 0,0 -0.42170844488744075,0.31645787889746946 l -5.762726868210685 -7.818245760468308" fill="#ff700a" stroke="none" /><path d="M 112.45986205192187 116.90419585922612 l 9.322237986427595 12.647406216233593 a36.71181100554668,36.71181100554668 0 0,0 -0.5105021884372184,0.3695642156223785 l -9.103754787616408 -12.805571203229048" fill="#ffc011" stroke="none" /><path d="M 111.5731344415666 117.5232005979908 l 8.379752056537503 12.688012654612823 a36.205456574949,36.205456574949 0 0,0 -0.521555752600809,0.3380661375780103 l -8.160710671679684 -12.82999263389473" fill="#ffba11" stroke="none" /><line stroke="#e1ed5e" stroke-width="0.3" x1="143.1302829299769" x2="145.66735839644613" y1="173.24464959558577" y2="177.55315839532614" /><path d="M 143.63769802327073 174.10635135553383 a86.0,86.0 0 0,1 -40.68552437913181,11.842963189579606" fill="none" id="id78" stroke="none" /><text fill="#e1ed5e" style="font-size:6.75px; font-family:Arial;" text-anchor="middle"><textPath startOffset="21.407464694133747" xlink:href="#id78">June</textPath></text><path d="M 110.65571695917076 118.09573695890943 l 3.0603421398934363 5.197130008236186 a27.031239867201155,27.031239867201155 0 0,0 -0.4018741280767848,0.23202213602547872 l -2.970675543956253 -5.248899041537837" fill="#ff3c05" stroke="none" /><path d="M 110.34350942703117 118.27599006163325 l 2.6595662207364232 4.699198677327987 a26.39960745716606,26.39960745716606 0 0,0 -0.39631569910806236,0.21982963760686033 l -2.5785063334722667 -4.7441612303679905" fill="#ff3304" stroke="none" /><path d="M 109.3889696526874 118.78422872680471 l 6.464462283129349 12.933254937867131 a35.45885043486744,35.45885043486744 0 0,0 -0.5468088231562397,0.2674715963452756 l -6.241493210711039 -13.04232028430963" fill="#ffb010" stroke="none" /><path d="M 108.73861861582097 119.09545874513695 l 6.509411668372068 14.224239257160244 a36.64293523330187,36.64293523330187 0 0,0 -0.5742237554909031,0.2568429819997774 l -6.264274510025538 -14.333885990069872" fill="#ffbf11" stroke="none" /><path d="M 108.4095320186766 119.2426549942271 l 2.2105797443505275 5.058239062922082 a26.520185252670757,26.520185252670757 0 0,0 -0.4187220585603819,0.17872754804674948 l -2.123422610619714 -5.0954412606282355" fill="#ff3505" stroke="none" /><path d="M 108.07796709384702 119.3841803445677 l 2.0891402112538664 5.01317598221948 a26.43106253425424,26.43106253425424 0 0,0 -0.4203112104433659,0.1709369102048275 l -2.00277453962006 -5.048300149003599" fill="#ff3404" stroke="none" /><path d="M 107.74402155503746 119.51999308798841 l 2.4970184712095516 6.29411772064134 a27.77133806029894,27.77133806029894 0 0,0 -0.444642579216269,0.1719973016513701 l -2.388603629499753 -6.336054910430751" fill="#ff4706" stroke="none" /><path d="M 106.72888874123015 119.89276391827305 l 4.852198066439242 14.344661404333285 a36.14308874968795,36.14308874968795 0 0,0 -0.5894374327594336,0.19375979186309114 l -4.605237896032075 -14.425842117598396" fill="#ffb911" stroke="none" /><path d="M 103.58742460773223 120.69131181640829 l 0.4141272147796615 2.3885757248243324 a23.424210251451232,23.424210251451232 0 0,0 -0.39678659807885974,0.06529108371886534 l -0.37306311364772954 -2.3953328070388684" fill="#ff0801" stroke="none" /><line stroke="#e1ed5e" stroke-width="0.3" x1="101.45913802915013" x2="101.54496967792366" y1="184.9874750549273" y2="189.98673829345242" /><path d="M 101.47630435890484 185.9873277026323 a86.0,86.0 0 0,1 -42.54439059252881,-10.42667462771756" fill="none" id="id79" stroke="none" /><text fill="#e1ed5e" style="font-size:6.75px; font-family:Arial;" text-anchor="middle"><textPath startOffset="22.145653131862474" xlink:href="#id79">July</textPath></text><path d="M 99.27912038922189 120.98762331915562 l -0.19131295983045668 5.569868084714488 a26.57315271006637,26.57315271006637 0 0,0 -0.45576024122790076,-0.019572305773950433 l 0.28689896165919615 -5.565763210514709" fill="#ff3605" stroke="none" /><path d="M 98.55909050195518 120.95050786540614 l -0.12938527712524517 1.8812335332360222 a22.88567763854495,22.88567763854495 0 0,0 -0.3917058151843863,-0.030320507415985142 l 0.1616600870848676 -1.8787352588249835" fill="#ff0000" stroke="none" /><path d="M 89.97174638481275 118.45085714620012 l -2.5665931835837803 4.7222423763792145 a26.37466032706164,26.37466032706164 0 0,0 -0.3959411882626119,-0.21962190275401308 l 2.6472785600024946 -4.677487558192054" fill="#ff3304" stroke="none" /><line stroke="#e1ed5e" stroke-width="0.3" x1="58.13341422392154" x2="55.67067388415222" y1="173.97424548756322" y2="178.32567169271397" /><path d="M 57.64086615596768 174.84453072859336 a86.0,86.0 0 0,1 -31.369924170532247,-30.572349798747897" fill="none" id="id80" stroke="none" /><text fill="#e1ed5e" style="font-size:6.75px; font-family:Arial;" text-anchor="middle"><textPath startOffset="22.145653131862474" xlink:href="#id80">August</textPath></text><path d="M 89.65649057296885 118.27599006163327 l -1.7252587998590132 3.0483669882455753 a24.50272168770463,24.50272168770463 0 0,0 -0.3642825842296059,-0.21031864806605707 l 1.777333851949019 -3.0183014429033466" fill="#ff1802" stroke="none" /><line stroke="#e1ed5e" stroke-width="0.3" x1="26.387840678322732" x2="22.057713659400548" y1="142.50000000000003" y2="145.00000000000006" /><path d="M 25.521815274538298 143.00000000000003 a86.0,86.0 0 0,1 -11.493303480769221,-40.785679425670985" fill="none" id="id81" stroke="none" /><text fill="#e1ed5e" style="font-size:6.75px; font-family:Arial;" text-anchor="middle"><textPath startOffset="21.40746469413373" xlink:href="#id81">September</textPath></text><line stroke="#e1ed5e" stroke-width="0.3" x1="15.003131293944662" x2="10.003315487706104" y1="100.72959589197737" y2="100.7725132973878" /><path d="M 14.003168132696942 100.73817937305945 a86.0,86.0 0 0,1 10.791469493833604,-42.45332614584628" fill="none" id="id82" stroke="none" /><text fill="#e1ed5e" style="font-size:6.75px; font-family:Arial;" text-anchor="middle"><textPath startOffset="22.145653131862435" xlink:href="#id82">October</textPath></text><path d="M 79.00077361379809 99.81974689727619 l -7.559967345750612 -0.06489322727896608 a28.560245855774944,28.560245855774944 0 0,0 0.008416525477970397,-0.49022041425696045 l 7.5577393886739745 0.1946605575049789" fill="#ff5207" stroke="none" /><path d="M 79.00696218219943 99.45929381324524 l -15.511066915407946 -0.39951006219865237 a36.51621104342362,36.51621104342362 0 0,0 0.021519025778639664,-0.6265029562285406 l 15.501923202632456 0.6657192829913314" fill="#ffbe11" stroke="none" /><path d="M 79.17382384314186 97.30363454192245 l -4.540982125043196 -0.5879210497161789 a25.578883031991666,25.578883031991666 0 0,0 0.06011705419151137,-0.43497705685272114 l 4.530220554296476 0.665786414768967" fill="#ff2703" stroke="none" /><path d="M 79.34024301695615 96.23510406497455 l -5.3539168849449394 -0.9756620047920592 a26.442089888865617,26.442089888865617 0 0,0 0.08521115536133163,-0.44586077165742116 l 5.336379437301448 1.067425341482795" fill="#ff3404" stroke="none" /><path d="M 79.407916724674 95.88100663000787 l -5.3269844030808455 -1.0655460715153955 a26.432508744695077,26.432508744695077 0 0,0 0.09281874778517893,-0.44417130891702167 l 5.3079079444713 1.1568338317178262" fill="#ff3404" stroke="none" /><path d="M 79.48165901384962 95.52812308129327 l -5.3271606137983545 -1.1610298613892922 a26.452213361951465,26.452213361951465 0 0,0 0.10050472924014359,-0.44284238139913973 l 5.306445023000549 1.2523065767274402" fill="#ff3404" stroke="none" /><path d="M 79.94057633289273 93.78553927170692 l -3.7148530519672662 -1.1508709714669192 a24.88904065171293,24.88904065171293 0 0,0 0.12993890694675939,-0.4070317753100955 l 3.6945494292432497 1.2144717804684064" fill="#ff1d03" stroke="none" /><path d="M 80.16572619554312 93.10060997987247 l -5.069479136360966 -1.7634279986996118 a26.367429274857457,26.367429274857457 0 0,0 0.15237841586547876,-0.4262295489958312 l 5.0384605504515445 1.8501925040763643" fill="#ff3304" stroke="none" /><path d="M 80.28708602549916 92.7611449362534 l -5.0881816424081086 -1.8684507777516999 a26.420396732253074,26.420396732253074 0 0,0 0.15999351360913971,-0.4244018032211392 l 5.055357444984533 1.9555208611669839" fill="#ff3404" stroke="none" /><line stroke="#e1ed5e" stroke-width="0.3" x1="26.387840678322718" x2="22.05771365940052" y1="57.49999999999999" y2="54.99999999999999" /><path d="M 25.521815274538284 56.99999999999999 a86.0,86.0 0 0,1 29.574782752854787,-30.34633250058573" fill="none" id="id83" stroke="none" /><text fill="#e1ed5e" style="font-size:6.75px; font-family:Arial;" text-anchor="middle"><textPath startOffset="21.40746469413373" xlink:href="#id83">November</textPath></text><path d="M 85.08716467003674 85.21462403516908 l -1.8709457650902404 -1.8549548717330067 a23.63463387059286,23.63463387059286 0 0,0 0.2881265350305476,-0.2856639298706157 l 1.838827309929716 1.8867988118322958" fill="#ff0b01" stroke="none" /><path d="M 85.34317274990677 84.96080404539775 l -3.770517039243834 -3.8688826466856265 a26.402319101742627,26.402319101742627 0 0,0 0.32729762376894056,-0.3135437197988662 l 3.7035469296095926 3.933038496790061" fill="#ff3304" stroke="none" /><line stroke="#e1ed5e" stroke-width="0.3" x1="56.869717070023135" x2="54.33264160355391" y1="26.7553504044142" y2="22.446841604673864" /><path d="M 56.362301976729285 25.89364864446614 a86.0,86.0 0 0,1 42.16139366436587,-11.88097634709845" fill="none" id="id84" stroke="none" /><text fill="#e1ed5e" style="font-size:6.75px; font-family:Arial;" text-anchor="middle"><textPath startOffset="22.145653131862474" xlink:href="#id84">December</textPath></text></svg>