<?xml version="1.0" encoding="utf-8" ?>
<svg baseProfile="full" height="200mm" version="1.1" viewBox="0,0,200,200" width="200mm" xmlns="http://www.w3.org/2000/svg" xmlns:ev="http://www.w3.org/2001/xml-events" xmlns:xlink="http://www.w3.org/1999/xlink"><defs /><rect fill="#1a1a1a" height="200" width="200" x="0" y="0" /><rect fill="#1a1a1a" height="200" width="180" x="10" y="0" /><text alignment-baseline="middle" fill="#e1ed5e" style="dominant-baseline: central; font-size:9.0px; font-family:Arial;" text-anchor="middle" x="100.0" y="100.0">2020</text><line stroke="#e1ed5e" stroke-width="0.3" x1="100.0" x2="100.0" y1="15.0" y2="10.0" /><path d="M 100.0 14.0 a86.0,86.0 0 0,1 42.35913384403234,11.155469271406648" fill="none" id="id25" stroke="none" /><text fill="#e1ed5e" style="font-size:6.75px; font-family:Arial;" text-anchor="middle"><textPath startOffset="22.145653131862478" xlink:href="#id25">January</textPath></text><line stroke="#e1ed5e" stroke-width="0.3" x1="143.13028292997686" x2="145.6673583964461" y1="26.7553504044142" y2="22.446841604673864" /><path d="M 143.63769802327073 25.89364864446614 a86.0,86.0 0 0,1 29.32050498858742,28.57503671076992" fill="none" id="id26" stroke="none" /><text fill="#e1ed5e" style="font-size:6.75px; font-family:Arial;" text-anchor="middle"><textPath startOffset="20.669276256404974" xlink:href="#id26">February</textPath></text><line stroke="#e1ed5e" stroke-width="0.3" x1="172.87174338648825" x2="177.1583165268699" y1="56.24261187166439" y2="53.66864786411523" /><path d="M 173.72905801456457 55.72781907015455 a86.0,86.0 0 0,1 12.242430191666344,42.057860355516425" fill="none" id="id27" stroke="none" /><text fill="#e1ed5e" style="font-size:6.75px; font-family:Arial;" text-anchor="middle"><textPath startOffset="22.145653131862474" xlink:href="#id27">March</textPath></text><path d="M 120.05942366710727 93.78553927170692 l 58.50727748102783 -18.12570412087149 a82.2506544301313,82.2506544301313 0 0,0 0.4062543123620558,1.352288478798972 l -58.80980811339351 17.118678038481796" fill="red" stroke="none" /><path d="M 120.26092885502905 94.47779374421319 l 56.39189639084415 -15.369862124949195 a79.44894045485897,79.44894045485897 0 0,0 0.3473451653654605,1.3189261690232617 l -56.64743103701434 14.399555451553136" fill="red" stroke="none" /><line stroke="#e1ed5e" stroke-width="0.3" x1="184.99686870605535" x2="189.99668451229388" y1="99.2704041080226" y2="99.22748670261217" /><path d="M 185.99683186730306 99.26182062694052 a86.0,86.0 0 0,1 -10.086455211305974,41.156179273409016" fill="none" id="id28" stroke="none" /><text fill="#e1ed5e" style="font-size:6.75px; font-family:Arial;" text-anchor="middle"><textPath startOffset="21.40746469413373" xlink:href="#id28">April</textPath></text><path d="M 120.82617615685814 102.69636545807758 l 56.39793851412851 7.301842266718844 a77.86865893558122,77.86865893558122 0 0,0 -0.18301168128395534,1.3241813586036157 l -56.264282316289346 -8.268911933522546" fill="red" stroke="none" /><path d="M 120.35273937422433 105.17358676015961 l 54.3674780849077 13.820000326814286 a77.09648012438986,77.09648012438986 0 0,0 -0.3370603746832393,1.2798731435998567 l -54.12222822941973 -14.751253974786945" fill="red" stroke="none" /><line stroke="#e1ed5e" stroke-width="0.3" x1="174.33088141563837" x2="178.70328620479359" y1="141.23008692659167" y2="143.65538615756765" /><path d="M 175.20536237346943 141.71514677278685 a86.0,86.0 0 0,1 -30.301960400862466,31.63118572779886" fill="none" id="id29" stroke="none" /><text fill="#e1ed5e" style="font-size:6.75px; font-family:Arial;" text-anchor="middle"><textPath startOffset="22.145653131862474" xlink:href="#id29">May</textPath></text><path d="M 118.00360718960297 110.81064883170644 l 51.34728693063341 30.832570474461065 a80.8931655299618,80.8931655299618 0 0,0 -0.7250802480643145,1.1843640933169348 l -50.810438718113694 -31.709471683902557" fill="red" stroke="none" /><path d="M 116.35404254752997 113.17365903436017 l 42.8024946502237 34.47865986060037 a75.96209179121009,75.96209179121009 0 0,0 -0.8267322712461145,1.0084789461332782 l -42.20431555973896 -35.20834108843214" fill="red" stroke="none" /><path d="M 116.1254893667686 113.45245675266167 l 43.14842567303608 35.995951323384354 a77.1915932300996,77.1915932300996 0 0,0 -0.8575818262918882,1.0102292350130224 l -42.52414928323708 -36.73134734084693" fill="red" stroke="none" /><path d="M 115.89218393027572 113.72728997021213 l 40.18846808051364 34.71384154753195 a74.10521407211931,74.10521407211931 0 0,0 -0.8398200501021396,0.9555610533759853 l -39.58663696645291 -35.39861487871923" fill="red" stroke="none" /><path d="M 115.41159269507618 114.26474011684316 l 39.46626218542982 36.529383081750844 a74.7771482994626,74.7771482994626 0 0,0 -0.8800350462881299,0.9345667224852835 l -38.833371305405436 -37.20149126418062" fill="red" stroke="none" /><path d="M 114.65682725009322 115.03919595460226 l 38.96232791313999 39.978780832629035 a76.82442040249441,76.82442040249441 0 0,0 -0.9523576375342653,0.912337073556505 l -38.270297789740404 -40.641730036491126" fill="red" stroke="none" /><path d="M 114.13192950727249 115.5334660781643 l 42.12526577698441 46.30304634931162 a83.59800410562684,83.59800410562684 0 0,0 -1.0697955900449891,0.9566178133051952 l -41.324205160116044 -47.01935969250021" fill="red" stroke="none" /><path d="M 113.59037401385872 116.0094264158162 l 37.34825883967554 43.99615500227672 a78.7109529754947,78.7109529754947 0 0,0 -1.0375815221996711,0.8655874086845824 l -36.58750298331397 -44.630804594873176" fill="red" stroke="none" /><path d="M 112.16784306229584 117.11559508785304 l 33.572429235340714 47.22382611000514 a78.9413303025566,78.9413303025566 0 0,0 -1.1112116546052124,0.775712035960608 l -32.75682248956174 -47.79318296177087" fill="red" stroke="none" /><path d="M 111.5731344415666 117.5232005979908 l 29.919518980603314 45.301965127913505 a75.2903827623399,75.2903827623399 0 0,0 -1.0845915494512854,0.7030191386909782 l -29.137441798895022 -45.80889810830838" fill="red" stroke="none" /><line stroke="#e1ed5e" stroke-width="0.3" x1="143.1302829299769" x2="145.6673583964461" y1="173.24464959558577" y2="177.55315839532614" /><path d="M 143.63769802327073 174.10635135553383 a86.0,86.0 0 0,1 -40.685524379131806,11.842963189579606" fill="none" id="id30" stroke="none" /><text fill="#e1ed5e" style="font-size:6.75px; font-family:Arial;" text-anchor="middle"><textPath startOffset="21.407464694133747" xlink:href="#id30">June</textPath></text><path d="M 110.02825361518725 118.45085714620011 l 26.65584252843597 49.04374794220777 a76.81955887607484,76.81955887607484 0 0,0 -1.1640401333671588,0.6197858061967606 l -25.810013579282256 -49.494104216127106" fill="red" stroke="none" /><path d="M 109.71004243097381 118.62028667847754 l 23.90397770841382 45.839029113486944 a72.69735718923597,72.69735718923597 0 0,0 -1.1114829736584797,0.5675311259797527 l -23.113567513041755 -46.242618191139535" fill="red" stroke="none" /><path d="M 107.74402155503746 119.51999308798841 l 19.736913354277483 49.74991475883858 a74.52195593647491,74.52195593647491 0 0,0 -1.1931594590037116,0.4615397107271399 l -18.879981632780243 -50.081394357703765" fill="red" stroke="none" /><path d="M 106.0420521117495 120.11202640906438 l 16.448867003125557 54.75292854934655 a78.17034555096166,78.17034555096166 0 0,0 -1.2884705924350184,0.37505501108621303 l -15.50653639830893 -55.02722725473528" fill="red" stroke="none" /><path d="M 103.58742460773223 120.69131181640829 l 10.069211778395257 58.07653774888148 a79.94296618541884,79.94296618541884 0 0,0 -1.3541672164200453,0.22282770014085013 l -9.070767058922138 -58.240831447518" fill="red" stroke="none" /><line stroke="#e1ed5e" stroke-width="0.3" x1="101.45913802915013" x2="101.54496967792366" y1="184.9874750549273" y2="189.98673829345242" /><path d="M 101.47630435890484 185.9873277026323 a86.0,86.0 0 0,1 -42.54439059252881,-10.42667462771756" fill="none" id="id31" stroke="none" /><text fill="#e1ed5e" style="font-size:6.75px; font-family:Arial;" text-anchor="middle"><textPath startOffset="22.145653131862474" xlink:href="#id31">July</textPath></text><path d="M 98.19965949673042 120.92268563240118 l -5.4010215098087535 62.76805689720356 a84.0,84.0 0 0,0 -1.4356017464599389,-0.1359529779792652 l 6.4777228196537076 -62.666092163719114" fill="red" stroke="none" /><path d="M 97.48249496171623 120.84855314841334 l -6.525171787228488 54.03778293977186 a75.43032107106058,75.43032107106058 0 0,0 -1.2841910802286836,-0.16626424573671203 l 7.451840689347965 -53.917807097834746" fill="red" stroke="none" /><path d="M 96.05791012581884 120.62667999033965 l -10.192601136462294 53.33199612924853 a75.29724605407895,75.29724605407895 0 0,0 -1.2675162433312888,-0.253538747528995 l 11.106613865324542 -53.14916798505667" fill="red" stroke="none" /><path d="M 95.70440661134978 120.55596938700252 l -11.353415800231074 54.33020458689058 a76.50379429179885,76.50379429179885 0 0,0 -1.2832148390861873,-0.27967070166758706 l 12.284393055936397 -54.127302427089276" fill="red" stroke="none" /><path d="M 94.30408787586889 120.21278271476187 l -14.648900719753714 51.98378078974814 a75.00836747665855,75.00836747665855 0 0,0 -1.236352161411737,-0.35988409539748833 l 15.539112893547056 -51.724653000048136" fill="red" stroke="none" /><path d="M 93.27111125876986 119.89276391827306 l -17.816176598630186 52.670360386731545 a76.60200546618582,76.60200546618582 0 0,0 -1.242025748143431,-0.4320410283716405 l 18.717708118818635 -52.35676092579131" fill="red" stroke="none" /><path d="M 90.6110303473126 118.78422872680471 l -24.370858994022164 48.75804337927388 a75.50949974345448,75.50949974345448 0 0,0 -1.154478327126122,-0.5894848598143512 l 25.204264542861868 -48.33250056778669" fill="red" stroke="none" /><path d="M 89.97174638481275 118.45085714620012 l -25.388799943131023 46.71253229522728 a74.1662659586413,74.1662659586413 0 0,0 -1.1133974469629506,-0.6175827953046351 l 26.186941578250078 -46.26981658448949" fill="red" stroke="none" /><line stroke="#e1ed5e" stroke-width="0.3" x1="58.13341422392154" x2="55.670673884152215" y1="173.97424548756322" y2="178.32567169271397" /><path d="M 57.64086615596767 174.84453072859336 a86.0,86.0 0 0,1 -31.369924170532244,-30.572349798747886" fill="none" id="id32" stroke="none" /><text fill="#e1ed5e" style="font-size:6.75px; font-family:Arial;" text-anchor="middle"><textPath startOffset="22.145653131862474" xlink:href="#id32">August</textPath></text><path d="M 89.65649057296885 118.27599006163327 l -13.521241022751914 23.890737306911316 a48.451617217628424,48.451617217628424 0 0,0 -0.7203314209375372,-0.4158835397840374 l 13.929364911549852 -23.655106869851107" fill="red" stroke="none" /><path d="M 89.03521579738668 117.91015095944536 l -18.743294638584544 30.61576317885062 a56.89757720142486,56.89757720142486 0 0,0 -0.8286342901501124,-0.5171290825807847 l 19.26609305752437 -30.28949829942829" fill="red" stroke="none" /><path d="M 84.83555147118756 114.52719865689866 l -39.09214694915537 37.4493924771512 a75.13550544699908,75.13550544699908 0 0,0 -0.88425246907161,-0.9390454793310564 l 39.72925525196324 -36.772805537875655" fill="red" stroke="none" /><line stroke="#e1ed5e" stroke-width="0.3" x1="26.387840678322732" x2="22.057713659400548" y1="142.50000000000003" y2="145.00000000000006" /><path d="M 25.521815274538298 143.00000000000003 a86.0,86.0 0 0,1 -11.493303480769221,-40.785679425670985" fill="none" id="id33" stroke="none" /><text fill="#e1ed5e" style="font-size:6.75px; font-family:Arial;" text-anchor="middle"><textPath startOffset="21.40746469413373" xlink:href="#id33">September</textPath></text><path d="M 80.41425534168474 107.57618678355246 l -53.269451955207714 20.60576837443784 a78.11595400506907,78.11595400506907 0 0,0 -0.47304535495274314,-1.2548090051811915 l 53.615327993974894 -19.688291089062506" fill="red" stroke="none" /><path d="M 79.56144815229197 104.8234425847677 l -52.17636654172233 12.313480434966062 a74.60965422308237,74.60965422308237 0 0,0 -0.28347809666381707,-1.2490567991198522 l 52.380055499943815 -11.415989301907183" fill="red" stroke="none" /><path d="M 79.34024301695615 103.76489593502545 l -54.6151299248398 9.952695998005971 a76.51457983571393,76.51457983571393 0 0,0 -0.2243887792232119,-1.294214849561863 l 54.77793352155525 -9.013688115523516" fill="red" stroke="none" /><path d="M 79.17382384314188 102.69636545807758 l -54.96995266159572 7.116960908835755 a76.42875452502943,76.42875452502943 0 0,0 -0.1572900628735353,-1.3025873575893998 l 55.08402481072891 -6.172279874322956" fill="red" stroke="none" /><line stroke="#e1ed5e" stroke-width="0.3" x1="15.003131293944662" x2="10.003315487706104" y1="100.72959589197737" y2="100.7725132973878" /><path d="M 14.003168132696942 100.73817937305945 a86.0,86.0 0 0,1 10.791469493833604,-42.453326145846276" fill="none" id="id34" stroke="none" /><text fill="#e1ed5e" style="font-size:6.75px; font-family:Arial;" text-anchor="middle"><textPath startOffset="22.145653131862435" xlink:href="#id34">October</textPath></text><path d="M 79.22317932658666 96.9465228501225 l -54.74218977987256 -8.045216746804448 a76.33021646802628,76.33021646802628 0 0,0 0.2016517387813875,-1.2947488181734081 l 54.5960165489529 8.983753746909306" fill="red" stroke="none" /><line stroke="#e1ed5e" stroke-width="0.3" x1="26.387840678322718" x2="22.05771365940052" y1="57.5" y2="55.0" /><path d="M 25.521815274538284 57.0 a86.0,86.0 0 0,1 29.574782752854787,-30.346332500585742" fill="none" id="id35" stroke="none" /><text fill="#e1ed5e" style="font-size:6.75px; font-family:Arial;" text-anchor="middle"><textPath startOffset="21.40746469413373" xlink:href="#id35">November</textPath></text><path d="M 84.10781606972428 86.27271002978789 l -42.68870658785839 -36.873488021269694 a77.40903995813954,77.40903995813954 0 0,0 0.8772616695059251,-0.9981627431942217 l 42.049433854393875 37.600863042275215" fill="red" stroke="none" /><line stroke="#e1ed5e" stroke-width="0.3" x1="56.869717070023135" x2="54.33264160355391" y1="26.7553504044142" y2="22.446841604673864" /><path d="M 56.362301976729285 25.89364864446614 a86.0,86.0 0 0,1 42.16139366436587,-11.88097634709845" fill="none" id="id36" stroke="none" /><text fill="#e1ed5e" style="font-size:6.75px; font-family:Arial;" text-anchor="middle"><textPath startOffset="22.145653131862474" xlink:href="#id36">December</textPath></text></svg>