<?xml version="1.0" encoding="utf-8" ?>
<svg baseProfile="full" height="200mm" version="1.1" viewBox="0,0,200,200" width="200mm" xmlns="http://www.w3.org/2000/svg" xmlns:ev="http://www.w3.org/2001/xml-events" xmlns:xlink="http://www.w3.org/1999/xlink"><defs /><rect fill="#1a1a1a" height="200" width="200" x="0" y="0" /><rect fill="#1a1a1a" height="200" width="180" x="10" y="0" /><text alignment-baseline="middle" fill="#e1ed5e" style="dominant-baseline: central; font-size:9.0px; font-family:Arial;" text-anchor="middle" x="100.0" y="100.0">2026</text><line stroke="#e1ed5e" stroke-width="0.3" x1="100.0" x2="100.0" y1="15.0" y2="10.0" /><path d="M 100.0 14.0 a86.0,86.0 0 0,1 42.46469731375804,11.215312516191453" fill="none" id="id97" stroke="none" /><text fill="#e1ed5e" style="font-size:6.75px; font-family:Arial;" text-anchor="middle"><textPath startOffset="22.20632615414155" xlink:href="#id97">January</textPath></text><path d="M 100.72285384407766 79.0124445844662 l 0.5012309760394679 -14.552890562591019 a35.56151970839899,35.56151970839899 0 0,0 0.6115889931836076,0.026336308558107556 l -0.751660801612407 14.542106527508716" fill="#ff730a" stroke="none" /><path d="M 105.01212808612495 79.60689891045804 l 2.8602023227410056 -11.637451019192872 a32.98378168822873,32.98378168822873 0 0,0 0.5501869306161983,0.14025489903709465 l -3.0600981420422286 11.58649312398691" fill="#ff4c07" stroke="none" /><path d="M 106.0581310904928 79.89281104454417 l 4.2317394879326145 -14.045319294535698 a35.66896769303092,35.66896769303092 0 0,0 0.5863547327591954,0.182183269696868 l -4.472879593402528 13.97039588995631" fill="#ff750a" stroke="none" /><path d="M 106.74666289553966 80.11325718540242 l 4.689803430143927 -13.823858715091433 a35.59771646485159,35.59771646485159 0 0,0 0.5785781544622357,0.20185455741200903 l -4.927063588669436 13.741083304507217" fill="#ff740a" stroke="none" /><path d="M 108.43124777332544 80.76684994638697 l 11.598255613924263 -26.457648568757683 a49.888175800382605,49.888175800382605 0 0,0 0.7835244026685253,0.35154456028922865 l -12.051962135059567 26.25408367795192" fill="#c3ff1e" stroke="none" /><path d="M 109.41281617654863 81.2277094730956 l 13.054836493562016 -26.03569206513911 a50.1253500783147,50.1253500783147 0 0,0 0.7679669377923765,0.3933824935349476 l -13.50106391894315 25.807117046291662" fill="#c0ff1e" stroke="none" /><path d="M 109.73455568895987 81.39251694778311 l 16.872671387789246 -32.25190310945353 a57.398795226516775,57.398795226516775 0 0,0 0.8715185800610478,0.46553504286882735 l -17.425335014378604 31.956689340082953" fill="#68ff28" stroke="none" /><path d="M 110.36928655335952 81.73862282372117 l 3.5466380761515865 -6.245993423276793 a28.182692774080287,28.182692774080287 0 0,0 0.419792304174195,0.24317079829604002 l -3.65362711279111 6.184018467590703" fill="#ff0000" stroke="none" /><line stroke="#e1ed5e" stroke-width="0.3" x1="143.23703022742887" x2="145.7803849466894" y1="26.81831364943548" y2="22.513508569990506" /><path d="M 143.74570117128098 25.957352633546492 a86.0,86.0 0 0,1 28.547481713284135,27.462654790039103" fill="none" id="id98" stroke="none" /><text fill="#e1ed5e" style="font-size:6.75px; font-family:Arial;" text-anchor="middle"><textPath startOffset="19.985693538727396" xlink:href="#id98">February</textPath></text><path d="M 110.68208982089419 81.91981866633111 l 16.766157371759977 -28.377889592101777 a53.960713747067736,53.960713747067736 0 0,0 0.7956325671458846,0.4793597193118396 l -17.252152005123502 28.085083263331324" fill="#91ff24" stroke="none" /><path d="M 111.2981086023043 82.29822771554956 l 15.685667808713752 -24.57615955495019 a50.15523611764598,50.15523611764598 0 0,0 0.7237471606296169,0.47074528561052 l -16.10638199512765 24.30251534518014" fill="#c0ff1e" stroke="none" /><path d="M 112.77801427241765 83.33499621200491 l 20.928486929057016 -27.294797651196532 a55.39487671092127,55.39487671092127 0 0,0 0.7517017368366483,0.5867151288963757 l -21.39522122105309 26.93050413307693" fill="#80ff26" stroke="none" /><path d="M 113.89432698308785 84.25364557470405 l 19.860674078825696 -22.507978511743378 a51.01758603802845,51.01758603802845 0 0,0 0.6534842896955181,0.5867046475419829 l -20.245169356117202 22.1627748554321" fill="#b5ff20" stroke="none" /><path d="M 114.42810811169701 84.74124197986012 l 26.297906856571647 -27.8119205965256 a59.27640046169915,59.27640046169915 0 0,0 0.7353569323149151,0.7074127862644144 l -26.77274703249898 27.355124723498882" fill="#53ff2b" stroke="none" /><path d="M 115.4437574822437 85.77008943001952 l 21.5593870686155 -19.864864511289984 a50.31586623018828,50.31586623018828 0 0,0 0.5814030913651449,0.6419998148808234 l -21.89813380059668 19.490811909139616" fill="#beff1f" stroke="none" /><path d="M 116.60985879189232 87.15038557335679 l 25.697275578575777 -19.879764610706523 a53.48930613507107,53.48930613507107 0 0,0 0.5571141996408561,0.7330969825349338 l -26.035665718440747 19.43448285229056" fill="#97ff23" stroke="none" /><line stroke="#e1ed5e" stroke-width="0.3" x1="172.23445277983987" x2="176.4835382374775" y1="55.19839476539836" y2="52.563006222186495" /><path d="M 173.08426987136738 54.67131705675599 a86.0,86.0 0 0,1 12.851231095245387,41.99856678651699" fill="none" id="id99" stroke="none" /><text fill="#e1ed5e" style="font-size:6.75px; font-family:Arial;" text-anchor="middle"><textPath startOffset="22.20632615414155" xlink:href="#id99">March</textPath></text><path d="M 118.21658344932153 89.55222093294921 l 25.956594708805117 -14.886917055825625 a50.92265209342584,50.92265209342584 0 0,0 0.4295504144511561,0.7641222567853347 l -26.209002764548707 14.437911289105498" fill="#b6ff1f" stroke="none" /><path d="M 118.56541770881063 90.18545643968196 l 26.262765770636168 -13.883719866319733 a50.706742387036314,50.706742387036314 0 0,0 0.40128486951931047,0.7751546415026787 l -26.497860073315593 13.42959250255671" fill="#b9ff1f" stroke="none" /><path d="M 118.89224826269711 90.83032412892265 l 38.35015419057012 -18.613903366266833 a63.62876640215176,63.62876640215176 0 0,0 0.46976756507669476,0.9894502977170965 l -38.66487994948857 17.951010652909194" fill="#31ff3e" stroke="none" /><path d="M 119.196687751892 91.48605970444005 l 31.865889797270643 -14.132869519228157 a55.85933065076445,55.85933065076445 0 0,0 0.3822621312611593,0.882313702841827 l -32.104442638374486 13.582256671799728" fill="#7aff26" stroke="none" /><path d="M 119.47837535516314 92.15188598940014 l 33.929906416193845 -13.670841077240476 a57.58046534929316,57.58046534929316 0 0,0 0.3625004247614192,0.9225240412063567 l -34.16020039083697 13.084768031138337" fill="#66ff29" stroke="none" /><path d="M 119.85752413597 93.16781622104841 l 30.833044374191754 -10.608423496636336 a53.606981989519724,53.606981989519724 0 0,0 0.2927010298879197,0.8751388236745926 l -31.011082697851442 10.07611157003943" fill="#95ff23" stroke="none" /><path d="M 119.97218684219823 93.5106431181261 l 50.32641353309804 -16.352042997665844 a73.9163227114461,73.9163227114461 0 0,0 0.38276165499473147,1.2134590453877208 l -50.60043067186098 15.483333785851704" fill="#3fffbf" stroke="none" /><path d="M 120.18372546131832 94.20196356495316 l 28.387542607749506 -8.154689116070939 a50.53559767275007,50.53559767275007 0 0,0 0.23297687676466286,0.8381417830660176 l -28.52370625508053 7.66483602958597" fill="#bbff1f" stroke="none" /><path d="M 120.37134235888165 94.90015583598534 l 29.623190898267293 -7.41598931285714 a51.53735968422282,51.53735968422282 0 0,0 0.20803226963726226,0.862428062586525 l -29.746455968165375 6.904976018611209" fill="#afff20" stroke="none" /><path d="M 120.53481517161879 95.60439243477599 l 28.764067493130053 -6.157131273047129 a50.41567344567987,50.41567344567987 0 0,0 0.1743438905973746,0.8501627275252913 l -28.865790679642423 5.661092889358426" fill="#bdff1f" stroke="none" /><path d="M 120.6074358757038 95.95851677861258 l 51.32924120099505 -10.066573460745271 a73.30704449221452,73.30704449221452 0 0,0 0.23218880936701836,1.2403619040243365 l -51.49491573427193 9.181533479258372" fill="#3effb8" stroke="none" /><path d="M 120.73433829027371 96.67025291283417 l 14.749343046521084 -2.3686110142131205 a35.938321138622356,35.938321138622356 0 0,0 0.09283057721219488,0.6116375178134289 l -14.787929517172579 2.114374384007609" fill="#ff790b" stroke="none" /><path d="M 120.83666639777658 97.38593545837742 l 15.069332578703792 -1.890523522712391 a36.187457442163,36.187457442163 0 0,0 0.07221921748089051,0.6187301518434064 l -15.099642149188272 1.630849632544132" fill="#ff7d0b" stroke="none" /><path d="M 120.87857604477298 97.74499172005257 l 15.004879032206436 -1.6206146618751833 a36.092143209413074,36.092143209413074 0 0,0 0.06139595693946986,0.6182489077021738 l -15.030552114828133 1.3620902234685746" fill="#ff7b0b" stroke="none" /><path d="M 120.94382443527127 98.46500227214037 l 62.831473305813795 -4.6049931835789 a84.0,84.0 0 0,0 0.09327763598233796,1.442963742987859 l -62.90143153280055 3.5227703763380056" fill="#4dd2ff" stroke="none" /><line stroke="#e1ed5e" stroke-width="0.3" x1="184.98032266829074" x2="189.97916517819016" y1="98.17113171792111" y2="98.06355123074" /><path d="M 185.9800911702706 98.14961562048488 a86.0,86.0 0 0,1 -9.607161424134198,41.387399972396054" fill="none" id="id100" stroke="none" /><text fill="#e1ed5e" style="font-size:6.75px; font-family:Arial;" text-anchor="middle"><textPath startOffset="21.466115282336823" xlink:href="#id100">April</textPath></text><path d="M 120.99980553446 99.90962569577887 l 12.764074494201429 -0.05493119207924084 a33.764192693993095,33.764192693993095 0 0,0 -0.0025012879091327435,0.5812112207134714 l -12.763128909002793 -0.16478950683791532" fill="#ff5808" stroke="none" /><path d="M 120.9904718944345 100.63252640178507 l 31.472904376720834 0.9484037833571126 a52.48719072325284,52.48719072325284 0 0,0 -0.03498612965512635,0.9028365490263955 l -31.451916114214505 -1.4900175793975143" fill="#a3ff22" stroke="none" /><path d="M 120.9764740272857 100.99374915477107 l 43.677577535927576 2.0692017019788937 a64.72656372378736,64.72656372378736 0 0,0 -0.06230285939850536,1.112459407253925 l -43.63548832564154 -2.8207328255682422" fill="#32ff4d" stroke="none" /><line stroke="#e1ed5e" stroke-width="0.3" x1="174.80103733775053" x2="179.2010983576182" y1="140.37084112569926" y2="142.7455964860345" /><path d="M 175.68104954172406 140.8457921977663 a86.0,86.0 0 0,1 -30.038265399797805,32.042727171017184" fill="none" id="id101" stroke="none" /><text fill="#e1ed5e" style="font-size:6.75px; font-family:Arial;" text-anchor="middle"><textPath startOffset="22.206326154141568" xlink:href="#id101">May</textPath></text><line stroke="#e1ed5e" stroke-width="0.3" x1="143.8653032363475" x2="146.44561519142675" y1="172.8068346515853" y2="177.08958963109032" /><path d="M 144.38136562736335 173.6633856474863 a86.0,86.0 0 0,1 -40.68145358897372,12.25698825130547" fill="none" id="id102" stroke="none" /><text fill="#e1ed5e" style="font-size:6.75px; font-family:Arial;" text-anchor="middle"><textPath startOffset="21.466115282336833" xlink:href="#id102">June</textPath></text><line stroke="#e1ed5e" stroke-width="0.3" x1="102.19456741930631" x2="102.32365962044197" y1="184.97166512339345" y2="189.96999836594603" /><path d="M 102.22038585953345 185.97133177190398 a86.0,86.0 0 0,1 -42.740103519485714,-10.115201625700543" fill="none" id="id103" stroke="none" /><text fill="#e1ed5e" style="font-size:6.75px; font-family:Arial;" text-anchor="middle"><textPath startOffset="22.20632615414155" xlink:href="#id103">July</textPath></text><line stroke="#e1ed5e" stroke-width="0.3" x1="58.666819895761336" x2="56.23545636021788" y1="174.27360380694188" y2="178.64263932499728" /><path d="M 58.180547188652646 175.14741091055294 a86.0,86.0 0 0,1 -31.652253787137756,-30.449443065178592" fill="none" id="id104" stroke="none" /><text fill="#e1ed5e" style="font-size:6.75px; font-family:Arial;" text-anchor="middle"><textPath startOffset="22.20632615414155" xlink:href="#id104">August</textPath></text><line stroke="#e1ed5e" stroke-width="0.3" x1="26.63291911575756" x2="22.317208475507996" y1="142.92168965132927" y2="145.44649492493687" /><path d="M 25.769776987707644 143.4266507060508 a86.0,86.0 0 0,1 -11.730757126820373,-40.83630448921669" fill="none" id="id105" stroke="none" /><text fill="#e1ed5e" style="font-size:6.75px; font-family:Arial;" text-anchor="middle"><textPath startOffset="21.46611528233685" xlink:href="#id105">September</textPath></text><line stroke="#e1ed5e" stroke-width="0.3" x1="15.007084014347285" x2="10.007500721073583" y1="101.09737516637583" y2="101.16192664675087" /><path d="M 14.007167355692545 101.11028546245083 a86.0,86.0 0 0,1 10.666146001902534,-42.60595125391555" fill="none" id="id106" stroke="none" /><text fill="#e1ed5e" style="font-size:6.75px; font-family:Arial;" text-anchor="middle"><textPath startOffset="22.20632615414155" xlink:href="#id106">October</textPath></text><line stroke="#e1ed5e" stroke-width="0.3" x1="26.266209847984243" x2="21.928928074336255" y1="57.71137044288968" y2="55.22380399835378" /><path d="M 25.398753493254645 57.2138571539825 a86.0,86.0 0 0,1 29.58750427330803,-30.4925239686951" fill="none" id="id107" stroke="none" /><text fill="#e1ed5e" style="font-size:6.75px; font-family:Arial;" text-anchor="middle"><textPath startOffset="21.46611528233685" xlink:href="#id107">November</textPath></text><line stroke="#e1ed5e" stroke-width="0.3" x1="56.76296977257108" x2="54.21961505331056" y1="26.818313649435495" y2="22.513508569990535" /><path d="M 56.25429882871898 25.957352633546506 a86.0,86.0 0 0,1 42.26535254187918,-11.944610805530505" fill="none" id="id108" stroke="none" /><text fill="#e1ed5e" style="font-size:6.75px; font-family:Arial;" text-anchor="middle"><textPath startOffset="22.20632615414155" xlink:href="#id108">December</textPath></text></svg>