<?xml version="1.0" encoding="utf-8" ?>
<svg baseProfile="full" height="200mm" version="1.1" viewBox="0,0,200,200" width="200mm" xmlns="http://www.w3.org/2000/svg" xmlns:ev="http://www.w3.org/2001/xml-events" xmlns:xlink="http://www.w3.org/1999/xlink"><defs /><rect fill="#1a1a1a" height="200" width="200" x="0" y="0" /><rect fill="#1a1a1a" height="200" width="180" x="10" y="0" /><text alignment-baseline="middle" fill="#e1ed5e" style="dominant-baseline: central; font-size:9.0px; font-family:Arial;" text-anchor="middle" x="100.0" y="100.0">2026</text><line stroke="#e1ed5e" stroke-width="0.3" x1="100.0" x2="100.0" y1="15.0" y2="10.0" /><path d="M 100.0 14.0 a86.0,86.0 0 0,1 42.46469731375804,11.215312516191453" fill="none" id="id97" stroke="none" /><text fill="#e1ed5e" style="font-size:6.75px; font-family:Arial;" text-anchor="middle"><textPath startOffset="22.20632615414155" xlink:href="#id97">January</textPath></text><path d="M 100.0 79.0 l 0.0 -5.186900440757064 a26.186900440757064,26.186900440757064 0 0,0 0.4507644439041356,0.0038798718800967364 l -0.08928396463160725 5.186131945485527" fill="#ff0000" stroke="none" /><path d="M 100.72285384407766 79.0124445844662 l 0.4984462657377987 -14.47203844808499 a35.480619652579726,35.480619652579726 0 0,0 0.6101976695255438,0.026276395234664265 l -0.747484767652674 14.461314326326132" fill="#ff8b0c" stroke="none" /><path d="M 105.01212808612495 79.60689891045804 l 2.858689595845703 -11.63129611014692 a32.97744360902256,32.97744360902256 0 0,0 0.5500812081014966,0.14022794801408722 l -3.058479692632225 11.580365165963965" fill="#ff6709" stroke="none" /><path d="M 106.0581310904928 79.89281104454417 l 4.201217089760933 -13.944014186038657 a35.56316437645839,35.56316437645839 0 0,0 0.584615454068883,0.18164286734141313 l -4.440617916540535 13.869631183814723" fill="#ff8c0c" stroke="none" /><path d="M 106.74666289553966 80.11325718540242 l 4.6658650166864115 -13.753296856704548 a35.52320456313197,35.52320456313197 0 0,0 0.577367094797075,0.20143204247461435 l -4.901914115546759 13.670943961057725" fill="#ff8c0c" stroke="none" /><path d="M 108.43124777332544 80.76684994638697 l 11.610843718435545 -26.48636423569871 a49.91952942701582,49.91952942701582 0 0,0 0.7840168306073134,0.351765498351433 l -12.065042667509639 26.282578406830744" fill="#b4ff20" stroke="none" /><path d="M 109.41281617654863 81.2277094730956 l 13.020368011389134 -25.96695043147342 a50.04845086855069,50.04845086855069 0 0,0 0.7667887704469344,0.3927789904603442 l -13.465417269424824 25.738978915700578" fill="#b3ff20" stroke="none" /><path d="M 109.73455568895987 81.39251694778311 l 16.866688838438602 -32.240467540208456 a57.38588929219601,57.38588929219601 0 0,0 0.8713226219140308,0.4654303688131513 l -17.41915650688094 31.94535844489355" fill="#5eff2a" stroke="none" /><path d="M 110.36928655335952 81.73862282372117 l 3.526120078788582 -6.209859125432904 a28.141139486647653,28.141139486647653 0 0,0 0.4191733515986838,0.24281226101367956 l -3.632490162852594 6.1482427070291745" fill="#ff1e03" stroke="none" /><line stroke="#e1ed5e" stroke-width="0.3" x1="143.23703022742887" x2="145.7803849466894" y1="26.81831364943548" y2="22.513508569990506" /><path d="M 143.74570117128098 25.957352633546492 a86.0,86.0 0 0,1 28.547481713284135,27.462654790039103" fill="none" id="id98" stroke="none" /><text fill="#e1ed5e" style="font-size:6.75px; font-family:Arial;" text-anchor="middle"><textPath startOffset="19.985693538727396" xlink:href="#id98">February</textPath></text><path d="M 110.68208982089419 81.91981866633111 l 17.029513883186613 -28.823638837973352 a54.478448275862064,54.478448275862064 0 0,0 0.8032663885622494,0.48395901129978863 l -17.5231423379665 28.52623321721495" fill="#7eff26" stroke="none" /><path d="M 111.2981086023043 82.29822771554956 l 15.642183027302286 -24.50802800076882 a50.07441016333938,50.07441016333938 0 0,0 0.7225808306616477,0.4699866721557741 l -16.06173088374821 24.235142404453516" fill="#b2ff20" stroke="none" /><path d="M 112.77801427241765 83.33499621200491 l 20.892827143815587 -27.248290389312324 a55.336271713767175,55.336271713767175 0 0,0 0.7509064741559869,0.5860944137598779 l -21.358766173131006 26.884617586329224" fill="#75ff27" stroke="none" /><path d="M 113.89432698308785 84.25364557470407 l 19.86383398046083 -22.51155960862964 a51.022361939331084,51.022361939331084 0 0,0 0.6535454642181245,0.586759570632387 l -20.24839043227494 22.166301029227952" fill="#a7ff21" stroke="none" /><path d="M 114.42810811169701 84.74124197986012 l 26.135481921246623 -27.640144590595057 a59.03999222193414,59.03999222193414 0 0,0 0.7324241557526828,0.7045914575351828 l -26.607389320611723 27.18617004629757" fill="#4cff2c" stroke="none" /><path d="M 115.4437574822437 85.77008943001954 l 21.57079469848756 -19.87537552540565 a50.33137801400052,50.33137801400052 0 0,0 0.5815823310312129,0.6421977357968638 l -21.90972067013481 19.50112500233924" fill="#afff20" stroke="none" /><path d="M 116.60985879189232 87.15038557335679 l 25.63480609530028 -19.83143736219833 a53.410325382421576,53.410325382421576 0 0,0 0.5562915810283011,0.7320145128670755 l -25.972373616552694 19.38723807345022" fill="#8bff24" stroke="none" /><line stroke="#e1ed5e" stroke-width="0.3" x1="172.23445277983987" x2="176.4835382374775" y1="55.19839476539836" y2="52.563006222186495" /><path d="M 173.08426987136738 54.67131705675599 a86.0,86.0 0 0,1 12.851231095245387,41.99856678651699" fill="none" id="id99" stroke="none" /><text fill="#e1ed5e" style="font-size:6.75px; font-family:Arial;" text-anchor="middle"><textPath startOffset="22.20632615414155" xlink:href="#id99">March</textPath></text><path d="M 118.21658344932153 89.55222093294921 l 25.984894629134246 -14.903147943249515 a50.955276121337825,50.955276121337825 0 0,0 0.4298256095585309,0.7646117981742564 l -26.23757787998521 14.453652635140465" fill="#a8ff21" stroke="none" /><path d="M 118.56541770881063 90.18545643968196 l 26.291410202775424 -13.898862645835967 a50.73914311641171,50.73914311641171 0 0,0 0.4015412835945925,0.7756499518811626 l -26.526760919530133 13.44423997169446" fill="#aaff21" stroke="none" /><path d="M 118.89224826269711 90.83032412892265 l 39.95622340469765 -19.39343653327185 a65.41401996370236,65.41401996370236 0 0,0 0.4829479906306587,1.0172116353613385 l -40.284129589170064 18.70278248226997" fill="#34ff5e" stroke="none" /><path d="M 119.196687751892 91.48605970444005 l 31.874880977194998 -14.136857205544253 a55.869166450609285,55.869166450609285 0 0,0 0.38232944058562746,0.8824690620428844 l -32.11350112762331 13.586088998914766" fill="#6fff28" stroke="none" /><path d="M 119.47837535516314 92.15188598940014 l 33.93610369030702 -13.673338046977854 a57.58714674617579,57.58714674617579 0 0,0 0.3625424877977851,0.9226310870458732 l -34.16643972798651 13.087157955036197" fill="#5cff2a" stroke="none" /><path d="M 119.85752413597 93.16781622104841 l 30.739206856892736 -10.576137741415415 a53.507745657246566,53.507745657246566 0 0,0 0.2921591867253195,0.8735187815855175 l -30.916703337389826 10.045445856907584" fill="#8aff24" stroke="none" /><path d="M 119.97218684219823 93.5106431181261 l 50.88186266838389 -16.53251936197575 a74.50035649468498,74.50035649468498 0 0,0 0.3857859631481284,1.2230469287007186 l -51.158904115300224 15.654222266848613" fill="#40ffc9" stroke="none" /><path d="M 120.18372546131832 94.20196356495316 l 28.37824772674447 -8.152019041171739 a50.52592688618097,50.52592688618097 0 0,0 0.23293229295138104,0.8379813913684431 l -28.514366790262212 7.662326346384344" fill="#adff20" stroke="none" /><path d="M 120.37134235888165 94.90015583598534 l 29.58085056277512 -7.40538966217835 a51.493712730101116,51.493712730101116 0 0,0 0.20785608725259364,0.861697672859313 l -29.70393945028853 6.895106757659631" fill="#a1ff22" stroke="none" /><path d="M 120.53481517161879 95.60439243477599 l 28.613757858563904 -6.12495654143629 a50.261958776250964,50.261958776250964 0 0,0 0.1738123254772736,0.8475706272181676 l -28.714949479956175 5.6315102580547105" fill="#b0ff20" stroke="none" /><path d="M 120.6074358757038 95.95851677861258 l 51.243145842389424 -10.049688635804282 a73.21930904848327,73.21930904848327 0 0,0 0.23191092081810258,1.2388774122842785 l -51.40854248711739 9.16613314605744" fill="#3fffbb" stroke="none" /><path d="M 120.73433829027371 96.67025291283417 l 14.678151329382626 -2.357178268713675 a35.8662172673062,35.8662172673062 0 0,0 0.09264432911318951,0.610410375546365 l -14.716551551935115 2.104168780775228" fill="#ff910d" stroke="none" /><path d="M 120.83666639777658 97.38593545837742 l 15.035369264101753 -1.886262654168341 a36.15322789732953,36.15322789732953 0 0,0 0.07215090566466105,0.6181448979192755 l -15.065610522770003 1.6271740179242127" fill="#ff950d" stroke="none" /><path d="M 120.87857604477298 97.74499172005257 l 14.952224056139213 -1.6149276166113018 a36.039182006740994,36.039182006740994 0 0,0 0.0613058652067664,0.6173416962486277 l -14.977807047028207 1.3573103896582392" fill="#ff930d" stroke="none" /><path d="M 120.94382443527127 98.46500227214037 l 62.831473305813795 -4.6049931835789 a84.0,84.0 0 0,0 0.09327763598233796,1.442963742987859 l -62.90143153280055 3.5227703763380056" fill="#4dd2ff" stroke="none" /><line stroke="#e1ed5e" stroke-width="0.3" x1="184.98032266829074" x2="189.97916517819016" y1="98.17113171792111" y2="98.06355123074" /><path d="M 185.9800911702706 98.14961562048488 a86.0,86.0 0 0,1 -9.607161424134198,41.387399972396054" fill="none" id="id100" stroke="none" /><text fill="#e1ed5e" style="font-size:6.75px; font-family:Arial;" text-anchor="middle"><textPath startOffset="21.466115282336823" xlink:href="#id100">April</textPath></text><path d="M 120.99980553446 99.90962569577887 l 12.694852625307924 -0.054633290356871506 a33.69497018408089,33.69497018408089 0 0,0 -0.002496159830737609,0.5800196358930803 l -12.693912168187683 -0.16389582373989348" fill="#ff710a" stroke="none" /><path d="M 120.9904718944345 100.63252640178507 l 31.43993525626767 0.9474102926326002 a52.45420663728286,52.45420663728286 0 0,0 -0.034964143614486715,0.902269187010262 l -31.418968979801978 -1.4884567266568685" fill="#96ff23" stroke="none" /><path d="M 120.9764740272857 100.99374915477107 l 42.96636293324621 2.03550829338429 a64.01455146486907,64.01455146486907 0 0,0 -0.06161750863824098,1.1002220090368051 l -42.92495907372044 -2.774802018756518" fill="#32ff4d" stroke="none" /><path d="M 120.92983693683757 101.71520430193887 l 14.571194488065014 1.194112287914144 a35.620041483017886,35.620041483017886 0 0,0 -0.05533896352432298,0.6106608511694483 l -14.548480928263617 -1.444754527632163" fill="#ff8d0d" stroke="none" /><path d="M 120.8583938346157 102.4346265915055 l 35.53503850937708 4.147709088775851 a56.77628338086596,56.77628338086596 0 0,0 -0.1216593839386775,0.9697449917268696 l -35.458377616191555 -4.758771834790116" fill="#65ff29" stroke="none" /><path d="M 120.76222939487914 103.15116336523771 l 36.206631950877664 5.495219709420553 a57.62127301011148,57.62127301011148 0 0,0 -0.157273822876611,0.9793442451822443 l -36.10667637363977 -6.117643184296002" fill="#5bff2a" stroke="none" /><path d="M 120.70491114924044 103.5080841355445 l 45.0049415054011 7.625298180620189 a66.64635727249157,66.64635727249157 0 0,0 -0.20137849876538447,1.1294375659625981 l -44.86701656429653 -8.398854497316005" fill="#36ff6d" stroke="none" /><line stroke="#e1ed5e" stroke-width="0.3" x1="174.80103733775053" x2="179.2010983576182" y1="140.37084112569926" y2="142.7455964860345" /><path d="M 175.68104954172406 140.8457921977663 a86.0,86.0 0 0,1 -30.038265399797805,32.042727171017184" fill="none" id="id101" stroke="none" /><text fill="#e1ed5e" style="font-size:6.75px; font-family:Arial;" text-anchor="middle"><textPath startOffset="22.206326154141568" xlink:href="#id101">May</textPath></text><line stroke="#e1ed5e" stroke-width="0.3" x1="143.8653032363475" x2="146.44561519142675" y1="172.8068346515853" y2="177.08958963109032" /><path d="M 144.38136562736335 173.6633856474863 a86.0,86.0 0 0,1 -40.68145358897372,12.25698825130547" fill="none" id="id102" stroke="none" /><text fill="#e1ed5e" style="font-size:6.75px; font-family:Arial;" text-anchor="middle"><textPath startOffset="21.466115282336833" xlink:href="#id102">June</textPath></text><line stroke="#e1ed5e" stroke-width="0.3" x1="102.19456741930631" x2="102.32365962044197" y1="184.97166512339345" y2="189.96999836594603" /><path d="M 102.22038585953345 185.97133177190398 a86.0,86.0 0 0,1 -42.740103519485714,-10.115201625700543" fill="none" id="id103" stroke="none" /><text fill="#e1ed5e" style="font-size:6.75px; font-family:Arial;" text-anchor="middle"><textPath startOffset="22.20632615414155" xlink:href="#id103">July</textPath></text><line stroke="#e1ed5e" stroke-width="0.3" x1="58.666819895761336" x2="56.23545636021788" y1="174.27360380694188" y2="178.64263932499728" /><path d="M 58.180547188652646 175.14741091055294 a86.0,86.0 0 0,1 -31.652253787137756,-30.449443065178592" fill="none" id="id104" stroke="none" /><text fill="#e1ed5e" style="font-size:6.75px; font-family:Arial;" text-anchor="middle"><textPath startOffset="22.20632615414155" xlink:href="#id104">August</textPath></text><line stroke="#e1ed5e" stroke-width="0.3" x1="26.63291911575756" x2="22.317208475507996" y1="142.92168965132927" y2="145.44649492493687" /><path d="M 25.769776987707644 143.4266507060508 a86.0,86.0 0 0,1 -11.730757126820373,-40.83630448921669" fill="none" id="id105" stroke="none" /><text fill="#e1ed5e" style="font-size:6.75px; font-family:Arial;" text-anchor="middle"><textPath startOffset="21.46611528233685" xlink:href="#id105">September</textPath></text><line stroke="#e1ed5e" stroke-width="0.3" x1="15.007084014347285" x2="10.007500721073583" y1="101.09737516637583" y2="101.16192664675087" /><path d="M 14.007167355692545 101.11028546245083 a86.0,86.0 0 0,1 10.666146001902534,-42.60595125391555" fill="none" id="id106" stroke="none" /><text fill="#e1ed5e" style="font-size:6.75px; font-family:Arial;" text-anchor="middle"><textPath startOffset="22.20632615414155" xlink:href="#id106">October</textPath></text><line stroke="#e1ed5e" stroke-width="0.3" x1="26.266209847984243" x2="21.928928074336255" y1="57.711370442889674" y2="55.22380399835377" /><path d="M 25.398753493254645 57.213857153982495 a86.0,86.0 0 0,1 29.58750427330803,-30.492523968695096" fill="none" id="id107" stroke="none" /><text fill="#e1ed5e" style="font-size:6.75px; font-family:Arial;" text-anchor="middle"><textPath startOffset="21.46611528233685" xlink:href="#id107">November</textPath></text><line stroke="#e1ed5e" stroke-width="0.3" x1="56.762969772571076" x2="54.21961505331055" y1="26.818313649435495" y2="22.513508569990535" /><path d="M 56.25429882871897 25.957352633546506 a86.0,86.0 0 0,1 42.265352541879196,-11.944610805530505" fill="none" id="id108" stroke="none" /><text fill="#e1ed5e" style="font-size:6.75px; font-family:Arial;" text-anchor="middle"><textPath startOffset="22.20632615414155" xlink:href="#id108">December</textPath></text></svg>