<?xml version="1.0" encoding="utf-8" ?>
<svg baseProfile="full" height="200mm" version="1.1" viewBox="0,0,200,200" width="200mm" xmlns="http://www.w3.org/2000/svg" xmlns:ev="http://www.w3.org/2001/xml-events" xmlns:xlink="http://www.w3.org/1999/xlink"><defs /><rect fill="#1a1a1a" height="200" width="200" x="0" y="0" /><rect fill="#1a1a1a" height="200" width="180" x="10" y="0" /><text alignment-baseline="middle" fill="#e1ed5e" style="dominant-baseline: central; font-size:9.0px; font-family:Arial;" text-anchor="middle" x="100.0" y="100.0">2025</text><line stroke="#e1ed5e" stroke-width="0.3" x1="100.0" x2="100.0" y1="15.0" y2="10.0" /><path d="M 100.0 14.0 a86.0,86.0 0 0,1 42.46469731375804,11.215312516191453" fill="none" id="id85" stroke="none" /><text fill="#e1ed5e" style="font-size:6.75px; font-family:Arial;" text-anchor="middle"><textPath startOffset="22.20632615414155" xlink:href="#id85">January</textPath></text><line stroke="#e1ed5e" stroke-width="0.3" x1="143.23703022742887" x2="145.7803849466894" y1="26.81831364943548" y2="22.513508569990506" /><path d="M 143.74570117128098 25.957352633546492 a86.0,86.0 0 0,1 28.547481713284135,27.462654790039103" fill="none" id="id86" stroke="none" /><text fill="#e1ed5e" style="font-size:6.75px; font-family:Arial;" text-anchor="middle"><textPath startOffset="19.985693538727396" xlink:href="#id86">February</textPath></text><line stroke="#e1ed5e" stroke-width="0.3" x1="172.23445277983987" x2="176.4835382374775" y1="55.19839476539836" y2="52.563006222186495" /><path d="M 173.08426987136738 54.67131705675599 a86.0,86.0 0 0,1 12.851231095245387,41.99856678651699" fill="none" id="id87" stroke="none" /><text fill="#e1ed5e" style="font-size:6.75px; font-family:Arial;" text-anchor="middle"><textPath startOffset="22.20632615414155" xlink:href="#id87">March</textPath></text><path d="M 119.04729006885535 91.15688171328212 l 26.18179501183295 -12.15546722978807 a49.865927555096725,49.865927555096725 0 0,0 0.35475495424785913,0.7816555171339985 l -26.38715228304416 11.702989703812007" fill="red" stroke="none" /><line stroke="#e1ed5e" stroke-width="0.3" x1="184.98032266829074" x2="189.97916517819016" y1="98.17113171792111" y2="98.06355123074" /><path d="M 185.9800911702706 98.14961562048488 a86.0,86.0 0 0,1 -9.607161424134198,41.387399972396054" fill="none" id="id88" stroke="none" /><text fill="#e1ed5e" style="font-size:6.75px; font-family:Arial;" text-anchor="middle"><textPath startOffset="21.466115282336823" xlink:href="#id88">April</textPath></text><line stroke="#e1ed5e" stroke-width="0.3" x1="174.80103733775053" x2="179.2010983576182" y1="140.37084112569926" y2="142.7455964860345" /><path d="M 175.68104954172406 140.8457921977663 a86.0,86.0 0 0,1 -30.038265399797805,32.042727171017184" fill="none" id="id89" stroke="none" /><text fill="#e1ed5e" style="font-size:6.75px; font-family:Arial;" text-anchor="middle"><textPath startOffset="22.206326154141568" xlink:href="#id89">May</textPath></text><path d="M 118.48025628344425 109.97397251340804 l 15.593416123183163 8.415917042346138 a38.71954531172854,38.71954531172854 0 0,0 -0.3216001008417458,0.5837975980916812 l -15.446239612889908 -8.683085158835624" fill="red" stroke="none" /><line stroke="#e1ed5e" stroke-width="0.3" x1="143.8653032363475" x2="146.44561519142675" y1="172.8068346515853" y2="177.08958963109032" /><path d="M 144.38136562736335 173.6633856474863 a86.0,86.0 0 0,1 -40.68145358897372,12.25698825130547" fill="none" id="id90" stroke="none" /><text fill="#e1ed5e" style="font-size:6.75px; font-family:Arial;" text-anchor="middle"><textPath startOffset="21.466115282336833" xlink:href="#id90">June</textPath></text><line stroke="#e1ed5e" stroke-width="0.3" x1="102.19456741930631" x2="102.32365962044197" y1="184.97166512339345" y2="189.96999836594603" /><path d="M 102.22038585953345 185.97133177190398 a86.0,86.0 0 0,1 -42.740103519485714,-10.115201625700543" fill="none" id="id91" stroke="none" /><text fill="#e1ed5e" style="font-size:6.75px; font-family:Arial;" text-anchor="middle"><textPath startOffset="22.20632615414155" xlink:href="#id91">July</textPath></text><path d="M 97.65516085044442 120.86867818915974 l -2.9697542018688052 26.430318152718964 a47.596638089680866,47.596638089680866 0 0,0 -0.8133870554921033,-0.09848984488752459 l 3.424268680412298 -26.375282779106094" fill="red" stroke="none" /><line stroke="#e1ed5e" stroke-width="0.3" x1="58.666819895761336" x2="56.23545636021788" y1="174.27360380694188" y2="178.64263932499728" /><path d="M 58.180547188652646 175.14741091055294 a86.0,86.0 0 0,1 -31.652253787137756,-30.449443065178592" fill="none" id="id92" stroke="none" /><text fill="#e1ed5e" style="font-size:6.75px; font-family:Arial;" text-anchor="middle"><textPath startOffset="22.20632615414155" xlink:href="#id92">August</textPath></text><line stroke="#e1ed5e" stroke-width="0.3" x1="26.63291911575756" x2="22.317208475507996" y1="142.92168965132927" y2="145.44649492493687" /><path d="M 25.769776987707644 143.4266507060508 a86.0,86.0 0 0,1 -11.730757126820373,-40.83630448921669" fill="none" id="id93" stroke="none" /><text fill="#e1ed5e" style="font-size:6.75px; font-family:Arial;" text-anchor="middle"><textPath startOffset="21.46611528233685" xlink:href="#id93">September</textPath></text><path d="M 79.4281124754447 104.21870165774334 l -27.067604826201023 5.550786198647778 a48.63089680865389,48.63089680865389 0 0,0 -0.16110736906816664,-0.8214830039640366 l 27.159142128244856 -5.084039467615787" fill="red" stroke="none" /><path d="M 79.23777060512086 103.15116336523772 l -29.516911988031598 4.479895195386495 a50.85494187351318,50.85494187351318 0 0,0 -0.12390673149780942,-0.8666033915052486 l 29.589652770546007 -3.971146331900846" fill="red" stroke="none" /><path d="M 79.18660465613746 102.79330883721812 l -31.225698311007395 4.19071552715998 a52.50565555006958,52.50565555006958 0 0,0 -0.11250834551228492,-0.896802211681464 l 31.29320816576653 -3.652595561191107" fill="red" stroke="none" /><path d="M 79.0235259727143 100.99374915477108 l -31.99150026927212 1.515580088011657 a53.027380043987606,53.027380043987606 0 0,0 -0.03534620100498195,-0.9121283906249643 l 32.0128486031283 -0.964674450372696" fill="red" stroke="none" /><line stroke="#e1ed5e" stroke-width="0.3" x1="15.007084014347285" x2="10.007500721073583" y1="101.09737516637583" y2="101.16192664675087" /><path d="M 14.007167355692545 101.11028546245083 a86.0,86.0 0 0,1 10.666146001902534,-42.60595125391555" fill="none" id="id94" stroke="none" /><text fill="#e1ed5e" style="font-size:6.75px; font-family:Arial;" text-anchor="middle"><textPath startOffset="22.20632615414155" xlink:href="#id94">October</textPath></text><path d="M 79.00019446554 99.90962569577889 l -35.37796584787857 -0.15225184076176243 a56.37829346020916,56.37829346020916 0 0,0 0.012529385442578096,-0.9704147103948583 l 35.37010345531828 0.7612028092170926" fill="red" stroke="none" /><path d="M 79.01574976396665 99.18683210126434 l -27.205398977404165 -1.0542457734674189 a48.22581803492078,48.22581803492078 0 0,0 0.03928427316977874,-0.829228917449032 l 27.18322109600089 1.5223857975394601" fill="red" stroke="none" /><line stroke="#e1ed5e" stroke-width="0.3" x1="26.266209847984243" x2="21.928928074336255" y1="57.711370442889674" y2="55.22380399835377" /><path d="M 25.398753493254645 57.213857153982495 a86.0,86.0 0 0,1 29.58750427330803,-30.492523968695096" fill="none" id="id95" stroke="none" /><text fill="#e1ed5e" style="font-size:6.75px; font-family:Arial;" text-anchor="middle"><textPath startOffset="21.46611528233685" xlink:href="#id95">November</textPath></text><path d="M 84.5562425177563 85.77008943001954 l -12.506677700733466 -11.523679092579897 a38.006239059203736,38.006239059203736 0 0,0 0.4474468697351428,-0.477305123302668 l 12.306463509027868 11.737253632760616" fill="red" stroke="none" /><path d="M 86.65592168130627 83.78471172551755 l -20.317540675396064 -24.68921203936105 a52.974359262085365,52.974359262085365 0 0,0 0.7090910643712082,-0.5733689934100589 l 19.889546212460353 25.035287130035243" fill="red" stroke="none" /><path d="M 87.80319425747018 82.90503203632743 l -18.00491927203899 -25.23558418830533 a52.00019076260156,52.00019076260156 0 0,0 0.73312558192932,-0.5136013211109516 l 17.567862550526012 25.541770352180226" fill="red" stroke="none" /><path d="M 89.00827224532344 82.1063720568725 l -12.994181860529304 -21.153458384986134 a45.82574397414605,45.82574397414605 0 0,0 0.675685175152076,-0.4070927577361045 l 12.62813461915958 21.373997752180856" fill="red" stroke="none" /><line stroke="#e1ed5e" stroke-width="0.3" x1="56.762969772571076" x2="54.21961505331055" y1="26.818313649435495" y2="22.513508569990535" /><path d="M 56.25429882871897 25.957352633546506 a86.0,86.0 0 0,1 42.265352541879196,-11.944610805530505" fill="none" id="id96" stroke="none" /><text fill="#e1ed5e" style="font-size:6.75px; font-family:Arial;" text-anchor="middle"><textPath startOffset="22.20632615414155" xlink:href="#id96">December</textPath></text><path d="M 90.91171255644093 81.06846463323043 l -14.824710537198298 -30.880903974487826 a55.25495982764038,55.25495982764038 0 0,0 0.8609822280651791,-0.40424270058786727 l 14.29095009783351 31.1315116577157" fill="red" stroke="none" /><path d="M 91.23893434514133 80.91482961587045 l -15.105553424016898 -32.906049583597664 a57.20753848916019,57.20753848916019 0 0,0 0.8984794834392991,-0.40312155417089884 l 14.536891822110826 33.1611914682851" fill="red" stroke="none" /><path d="M 92.23578459929587 80.48803036053334 l -10.945839553526456 -27.507594524942263 a50.6053907266933,50.6053907266933 0 0,0 0.8121366007935669,-0.31509638380878935 l 10.470719787733213 27.691933612641602" fill="red" stroke="none" /><path d="M 92.57280143429618 80.3572730644239 l -10.613486419348751 -28.069508809470914 a51.00905561290901,51.00905561290901 0 0,0 0.8239606290261264,-0.3034716533601153 l 10.128743464550055 28.248043730637352" fill="red" stroke="none" /><path d="M 93.59665428221793 80.00007090966166 l -13.040863791754418 -40.731261844501496 a63.76797656986399,63.76797656986399 0 0,0 1.0482684887884086,-0.32570212217609057 l 12.337809930255283 40.949704101560116" fill="red" stroke="none" /><path d="M 94.28887869178378 79.79150937346287 l -7.826484342257267 -27.69358711426926 a49.77826652901836,49.77826652901836 0 0,0 0.8265612671168012,-0.22593041783577855 l 7.3486251859167435 27.824204072931334" fill="red" stroke="none" /><path d="M 95.33964822691252 79.52364482259891 l -10.876751472565488 -47.789574086383126 a70.01170384667174,70.01170384667174 0 0,0 1.1773877432314785,-0.2573313577272685 l 10.05252100518049 47.96971894220626" fill="red" stroke="none" /><path d="M 96.04723909329186 79.375362276772 l -10.835805898662102 -56.538853822363095 a78.56784415817586,78.56784415817586 0 0,0 1.3304337479559467,-0.2431282635204491 l 9.860977029603262 56.71699756723428" fill="red" stroke="none" /><path d="M 96.75951476605007 79.25152402106235 l -9.72145570184976 -62.24542793681294 a84.0,84.0 0 0,0 1.430524078285405,-0.2108220633561242 l 8.648562643135705 62.403544484330034" fill="red" stroke="none" /></svg>