<?xml version="1.0" encoding="utf-8" ?>
<svg baseProfile="full" height="200mm" version="1.1" viewBox="0,0,200,200" width="200mm" xmlns="http://www.w3.org/2000/svg" xmlns:ev="http://www.w3.org/2001/xml-events" xmlns:xlink="http://www.w3.org/1999/xlink"><defs /><rect fill="#1a1a1a" height="200" width="200" x="0" y="0" /><rect fill="#1a1a1a" height="200" width="180" x="10" y="0" /><text alignment-baseline="middle" fill="#e1ed5e" style="dominant-baseline: central; font-size:9.0px; font-family:Arial;" text-anchor="middle" x="100.0" y="100.0">2020</text><line stroke="#e1ed5e" stroke-width="0.3" x1="100.0" x2="100.0" y1="15.0" y2="10.0" /><path d="M 100.0 14.0 a86.0,86.0 0 0,1 42.35913384403234,11.155469271406648" fill="none" id="id25" stroke="none" /><text fill="#e1ed5e" style="font-size:6.75px; font-family:Arial;" text-anchor="middle"><textPath startOffset="22.145653131862478" xlink:href="#id25">January</textPath></text><line stroke="#e1ed5e" stroke-width="0.3" x1="143.13028292997686" x2="145.6673583964461" y1="26.7553504044142" y2="22.446841604673864" /><path d="M 143.63769802327073 25.89364864446614 a86.0,86.0 0 0,1 29.32050498858742,28.57503671076993" fill="none" id="id26" stroke="none" /><text fill="#e1ed5e" style="font-size:6.75px; font-family:Arial;" text-anchor="middle"><textPath startOffset="20.669276256404974" xlink:href="#id26">February</textPath></text><line stroke="#e1ed5e" stroke-width="0.3" x1="172.87174338648825" x2="177.1583165268699" y1="56.24261187166439" y2="53.66864786411523" /><path d="M 173.72905801456457 55.72781907015455 a86.0,86.0 0 0,1 12.242430191666344,42.057860355516425" fill="none" id="id27" stroke="none" /><text fill="#e1ed5e" style="font-size:6.75px; font-family:Arial;" text-anchor="middle"><textPath startOffset="22.145653131862474" xlink:href="#id27">March</textPath></text><path d="M 120.05942366710727 93.78553927170692 l 55.742070867839686 -17.269036043639932 a79.35578866326628,79.35578866326628 0 0,0 0.3919559251984957,1.304693798229877 l -56.03030311304181 16.309604641819334" fill="red" stroke="none" /><path d="M 120.26092885502905 94.47779374421319 l 56.01071484149964 -15.26596939863629 a79.0538542969878,79.0538542969878 0 0,0 0.34561787654255494,1.3123673720191502 l -56.264522198846926 14.302221522244343" fill="red" stroke="none" /><line stroke="#e1ed5e" stroke-width="0.3" x1="184.99686870605535" x2="189.99668451229388" y1="99.2704041080226" y2="99.22748670261217" /><path d="M 185.99683186730306 99.26182062694052 a86.0,86.0 0 0,1 -10.086455211305974,41.156179273409016" fill="none" id="id28" stroke="none" /><text fill="#e1ed5e" style="font-size:6.75px; font-family:Arial;" text-anchor="middle"><textPath startOffset="21.40746469413373" xlink:href="#id28">April</textPath></text><path d="M 120.82617615685814 102.69636545807757 l 56.077350392451635 7.260335715969974 a77.5453950534116,77.5453950534116 0 0,0 -0.18225192675134955,1.3186841532769795 l -55.94445394914507 -8.22190817744704" fill="red" stroke="none" /><path d="M 120.35273937422433 105.17358676015961 l 54.16441564923251 13.768382649735129 a76.8869598691175,76.8869598691175 0 0,0 -0.3361443669014069,1.2763949128514411 l -53.92008180152637 -14.696158066959372" fill="red" stroke="none" /><line stroke="#e1ed5e" stroke-width="0.3" x1="174.33088141563837" x2="178.70328620479359" y1="141.23008692659167" y2="143.65538615756765" /><path d="M 175.20536237346943 141.71514677278685 a86.0,86.0 0 0,1 -30.301960400862466,31.631185727798858" fill="none" id="id29" stroke="none" /><text fill="#e1ed5e" style="font-size:6.75px; font-family:Arial;" text-anchor="middle"><textPath startOffset="22.145653131862474" xlink:href="#id29">May</textPath></text><path d="M 118.00360718960297 110.81064883170644 l 51.46595598897168 30.90382783435421 a81.03158502550284,81.03158502550284 0 0,0 -0.7263209615597785,1.1863907055685363 l -50.9278670629565 -31.782755656047303" fill="red" stroke="none" /><path d="M 116.35404254752997 113.17365903436017 l 43.04586712462359 34.67470349854339 a76.27460302184582,76.27460302184582 0 0,0 -0.830133482473993,1.0126278708020884 l -42.444286822910975 -35.40853365104397" fill="red" stroke="none" /><path d="M 116.1254893667686 113.45245675266167 l 43.18546031165785 36.0268469361052 a77.23982292368396,77.23982292368396 0 0,0 -0.8581176477068223,1.0108604312925025 l -42.560648100443906 -36.76287414984726" fill="red" stroke="none" /><path d="M 115.89218393027572 113.72728997021213 l 40.14172036450665 34.673461983849045 a74.04344143970744,74.04344143970744 0 0,0 -0.8391199928133691,0.9547645166891086 l -39.54058930773469 -35.35743877834944" fill="red" stroke="none" /><path d="M 115.41159269507618 114.26474011684316 l 39.28376563938656 36.36046700324844 a74.52847656625926,74.52847656625926 0 0,0 -0.8771084858988014,0.9314588167686266 l -38.6538013197515 -37.029467279961565" fill="red" stroke="none" /><path d="M 114.65682725009322 115.03919595460226 l 37.979392532490614 38.970202540201974 a75.41609084784912,75.41609084784912 0 0,0 -0.9348992121988737,0.8956122970107583 l -37.30482083442643 -39.616426967518315" fill="red" stroke="none" /><path d="M 114.13192950727249 115.5334660781643 l 41.617315184317455 45.74471966812381 a82.8431912231739,82.8431912231739 0 0,0 -1.0601363224393054,0.947980436650193 l -40.82591383505477 -46.452395634657385" fill="red" stroke="none" /><path d="M 113.59037401385872 116.0094264158162 l 35.190842013905154 41.45472340626666 a75.37728803772495,75.37728803772495 0 0,0 -0.9936365690530398,0.8289269658132434 l -34.47403111069022 -42.052712555991775" fill="red" stroke="none" /><path d="M 112.16784306229584 117.11559508785304 l 32.28512500561387 45.413071497368975 a76.71962275045713,76.71962275045713 0 0,0 -1.0799379565872633,0.753880565906292 l -31.500791957852847 -45.960596879080384" fill="red" stroke="none" /><path d="M 111.5731344415666 117.5232005979908 l 29.381349359581876 44.48710772929619 a74.31384852276008,74.31384852276008 0 0,0 -1.0705241381148154,0.6939008126203203 l -28.61333958921005 -44.98492238362041" fill="red" stroke="none" /><line stroke="#e1ed5e" stroke-width="0.3" x1="143.1302829299769" x2="145.66735839644613" y1="173.24464959558577" y2="177.55315839532614" /><path d="M 143.63769802327073 174.10635135553383 a86.0,86.0 0 0,1 -40.68552437913181,11.842963189579606" fill="none" id="id30" stroke="none" /><text fill="#e1ed5e" style="font-size:6.75px; font-family:Arial;" text-anchor="middle"><textPath startOffset="21.407464694133747" xlink:href="#id30">June</textPath></text><path d="M 110.02825361518725 118.45085714620011 l 26.800365435764324 49.30965381373765 a77.12220190549515,77.12220190549515 0 0,0 -1.1686260570236244,0.6222275522406514 l -25.949950562954143 -49.76245183370087" fill="red" stroke="none" /><path d="M 109.71004243097381 118.62028667847754 l 23.456606783305954 44.981136376525065 a71.72982388605524,71.72982388605524 0 0,0 -1.096690182909105,0.559977821620315 l -22.680989378683268 -45.377172149818215" fill="red" stroke="none" /><path d="M 107.74402155503746 119.51999308798841 l 19.891351449578668 50.13919964542831 a74.9407564238283,74.9407564238283 0 0,0 -1.1998648085432044,0.4641334839763316 l -19.027714378541933 -50.47327301754269" fill="red" stroke="none" /><path d="M 106.0420521117495 120.11202640906438 l 15.76457511624558 52.47514341179772 a75.79199307092676,75.79199307092676 0 0,0 -1.2492685496735207,0.363643867775034 l -14.861446554190453 -52.73803097387527" fill="red" stroke="none" /><path d="M 103.58742460773223 120.69131181640829 l 9.727786373037056 56.10728674104608 a77.94433644500049,77.94433644500049 0 0,0 -1.320312094432714,0.21725685270121942 l -8.763196775551268 -56.26600959224297" fill="red" stroke="none" /><line stroke="#e1ed5e" stroke-width="0.3" x1="101.45913802915013" x2="101.54496967792366" y1="184.9874750549273" y2="189.98673829345242" /><path d="M 101.47630435890484 185.9873277026323 a86.0,86.0 0 0,1 -42.54439059252881,-10.42667462771756" fill="none" id="id31" stroke="none" /><text fill="#e1ed5e" style="font-size:6.75px; font-family:Arial;" text-anchor="middle"><textPath startOffset="22.145653131862474" xlink:href="#id31">July</textPath></text><path d="M 98.19965949673042 120.92268563240118 l -5.4010215098087535 62.76805689720356 a84.0,84.0 0 0,0 -1.4356017464599389,-0.1359529779792652 l 6.4777228196537076 -62.666092163719114" fill="red" stroke="none" /><path d="M 97.48249496171623 120.84855314841334 l -6.55195767984945 54.259608555785924 a75.65375805985948,75.65375805985948 0 0,0 -1.2879950649384695,-0.16675674771582114 l 7.482430566678714 -54.13914021186971" fill="red" stroke="none" /><path d="M 96.05791012581884 120.62667999033965 l -10.185319228762046 53.29389411111953 a75.25845443171977,75.25845443171977 0 0,0 -1.26686324452958,-0.25340812948035485 l 11.098678958822584 -53.11119658497631" fill="red" stroke="none" /><path d="M 95.70440661134978 120.55596938700252 l -11.355397609034476 54.33968825943773 a76.51348282167261,76.51348282167261 0 0,0 -1.2833773469123417,-0.27970611949193164 l 12.286537372565954 -54.136750681812075" fill="red" stroke="none" /><path d="M 94.30408787586889 120.21278271476187 l -14.799285411386453 52.51744300737984 a75.56281397363102,75.56281397363102 0 0,0 -1.24549102348779,-0.36254428495663277 l 15.69863644725585 -52.255655028120685" fill="red" stroke="none" /><path d="M 93.27111125876986 119.89276391827306 l -17.687568212896885 52.29015254652359 a76.20063516504668,76.20063516504668 0 0,0 -1.2355179257238824,-0.4297772699151006 l 18.58259191066579 -51.9788168440399" fill="red" stroke="none" /><path d="M 90.6110303473126 118.78422872680471 l -24.351324216519657 48.71896073844019 a75.46580694832065,75.46580694832065 0 0,0 -1.1538103001201787,-0.5891437604652378 l 25.184061738353417 -48.29375902630212" fill="red" stroke="none" /><path d="M 89.97174638481275 118.45085714620012 l -25.45580158852354 46.8358077761969 a74.30657299586181,74.30657299586181 0 0,0 -1.1155037616737256,-0.6187511325685858 l 26.256049538353366 -46.39192372819517" fill="red" stroke="none" /><line stroke="#e1ed5e" stroke-width="0.3" x1="58.13341422392154" x2="55.67067388415222" y1="173.97424548756322" y2="178.32567169271397" /><path d="M 57.64086615596768 174.84453072859336 a86.0,86.0 0 0,1 -31.369924170532247,-30.572349798747897" fill="none" id="id32" stroke="none" /><text fill="#e1ed5e" style="font-size:6.75px; font-family:Arial;" text-anchor="middle"><textPath startOffset="22.145653131862474" xlink:href="#id32">August</textPath></text><path d="M 89.65649057296885 118.27599006163327 l -13.586420120071482 24.005902526534513 a48.58394764700222,48.58394764700222 0 0,0 -0.7222987807842907,-0.41701939552115186 l 13.996511368716172 -23.76913623373719" fill="red" stroke="none" /><path d="M 89.03521579738668 117.91015095944536 l -18.88378329095245 30.84524083436149 a57.16664421133673,57.16664421133673 0 0,0 -0.832552877930605,-0.5195745711733112 l 19.41050029767277 -30.51653046634663" fill="red" stroke="none" /><path d="M 84.83555147118756 114.52719865689866 l -38.399868681505566 36.78620555671064 a74.17682609950919,74.17682609950919 0 0,0 -0.8729699924978166,-0.927063880191839 l 39.02569450773964 -36.121600216574315" fill="red" stroke="none" /><line stroke="#e1ed5e" stroke-width="0.3" x1="26.387840678322732" x2="22.057713659400548" y1="142.50000000000003" y2="145.00000000000006" /><path d="M 25.521815274538298 143.00000000000003 a86.0,86.0 0 0,1 -11.493303480769221,-40.785679425670985" fill="none" id="id33" stroke="none" /><text fill="#e1ed5e" style="font-size:6.75px; font-family:Arial;" text-anchor="middle"><textPath startOffset="21.40746469413373" xlink:href="#id33">September</textPath></text><path d="M 80.41425534168474 107.57618678355246 l -53.0777261504404 20.53160471441446 a77.91038398614185,77.91038398614185 0 0,0 -0.4718004883463037,-1.251506848608561 l 53.422357322601144 -19.617429585611752" fill="red" stroke="none" /><path d="M 79.56144815229197 104.8234425847677 l -53.09460162120316 12.530181413499042 a75.55311327109999,75.55311327109999 0 0,0 -0.2870627530731957,-1.2648514566730695 l 53.30187523583402 -11.616895622886945" fill="red" stroke="none" /><path d="M 79.34024301695615 103.76489593502545 l -55.30953552661984 10.079239830517956 a77.22042151862188,77.22042151862188 0 0,0 -0.2264587501214726,-1.3061538916296704 l 55.47440909423355 -9.128292905967692" fill="red" stroke="none" /><path d="M 79.17382384314188 102.69636545807758 l -55.495315789819394 7.184979683920562 a76.9585025502839,76.9585025502839 0 0,0 -0.15838028213351446,-1.3116159370120624 l 55.61047815821257 -6.2312700699851" fill="red" stroke="none" /><line stroke="#e1ed5e" stroke-width="0.3" x1="15.003131293944662" x2="10.003315487706104" y1="100.72959589197737" y2="100.7725132973878" /><path d="M 14.003168132696942 100.73817937305945 a86.0,86.0 0 0,1 10.791469493833604,-42.45332614584628" fill="none" id="id34" stroke="none" /><text fill="#e1ed5e" style="font-size:6.75px; font-family:Arial;" text-anchor="middle"><textPath startOffset="22.145653131862435" xlink:href="#id34">October</textPath></text><path d="M 79.22317932658666 96.9465228501225 l -54.69916437976756 -8.038893494650038 a76.28672890000962,76.28672890000962 0 0,0 0.20153685185833511,-1.2940111617130963 l 54.55310603577096 8.976692838294584" fill="red" stroke="none" /><line stroke="#e1ed5e" stroke-width="0.3" x1="26.387840678322718" x2="22.05771365940052" y1="57.49999999999999" y2="54.99999999999999" /><path d="M 25.521815274538284 56.99999999999999 a86.0,86.0 0 0,1 29.574782752854787,-30.34633250058573" fill="none" id="id35" stroke="none" /><text fill="#e1ed5e" style="font-size:6.75px; font-family:Arial;" text-anchor="middle"><textPath startOffset="21.40746469413373" xlink:href="#id35">November</textPath></text><path d="M 84.10781606972428 86.27271002978789 l -43.1295916498677 -37.25431403714577 a77.99162736983928,77.99162736983928 0 0,0 0.8838640198993316,-1.0056750059651731 l 42.483716566009775 37.98920132092224" fill="red" stroke="none" /><line stroke="#e1ed5e" stroke-width="0.3" x1="56.869717070023135" x2="54.33264160355391" y1="26.7553504044142" y2="22.446841604673864" /><path d="M 56.362301976729285 25.89364864446614 a86.0,86.0 0 0,1 42.16139366436587,-11.88097634709845" fill="none" id="id36" stroke="none" /><text fill="#e1ed5e" style="font-size:6.75px; font-family:Arial;" text-anchor="middle"><textPath startOffset="22.145653131862474" xlink:href="#id36">December</textPath></text></svg>