<?xml version="1.0" encoding="utf-8" ?>
<svg baseProfile="full" height="200mm" version="1.1" viewBox="0,0,200,200" width="200mm" xmlns="http://www.w3.org/2000/svg" xmlns:ev="http://www.w3.org/2001/xml-events" xmlns:xlink="http://www.w3.org/1999/xlink"><defs /><rect fill="#1a1a1a" height="200" width="200" x="0" y="0" /><rect fill="#1a1a1a" height="200" width="180" x="10" y="0" /><text alignment-baseline="middle" fill="#e1ed5e" style="dominant-baseline: central; font-size:9.0px; font-family:Arial;" text-anchor="middle" x="100.0" y="100.0">2018</text><line stroke="#e1ed5e" stroke-width="0.3" x1="100.0" x2="100.0" y1="15.0" y2="10.0" /><path d="M 100.0 14.0 a86.0,86.0 0 0,1 42.46469731375804,11.215312516191453" fill="none" id="id1" stroke="none" /><text fill="#e1ed5e" style="font-size:6.75px; font-family:Arial;" text-anchor="middle"><textPath startOffset="22.20632615414155" xlink:href="#id1">January</textPath></text><line stroke="#e1ed5e" stroke-width="0.3" x1="143.23703022742887" x2="145.7803849466894" y1="26.81831364943548" y2="22.513508569990506" /><path d="M 143.74570117128098 25.957352633546492 a86.0,86.0 0 0,1 28.547481713284135,27.462654790039103" fill="none" id="id2" stroke="none" /><text fill="#e1ed5e" style="font-size:6.75px; font-family:Arial;" text-anchor="middle"><textPath startOffset="19.985693538727396" xlink:href="#id2">February</textPath></text><line stroke="#e1ed5e" stroke-width="0.3" x1="172.23445277983987" x2="176.4835382374775" y1="55.19839476539836" y2="52.563006222186495" /><path d="M 173.08426987136738 54.67131705675599 a86.0,86.0 0 0,1 12.851231095245387,41.99856678651699" fill="none" id="id3" stroke="none" /><text fill="#e1ed5e" style="font-size:6.75px; font-family:Arial;" text-anchor="middle"><textPath startOffset="22.20632615414155" xlink:href="#id3">March</textPath></text><line stroke="#e1ed5e" stroke-width="0.3" x1="184.98032266829074" x2="189.97916517819016" y1="98.17113171792111" y2="98.06355123074" /><path d="M 185.9800911702706 98.14961562048488 a86.0,86.0 0 0,1 -9.607161424134198,41.387399972396054" fill="none" id="id4" stroke="none" /><text fill="#e1ed5e" style="font-size:6.75px; font-family:Arial;" text-anchor="middle"><textPath startOffset="21.466115282336823" xlink:href="#id4">April</textPath></text><line stroke="#e1ed5e" stroke-width="0.3" x1="174.80103733775053" x2="179.2010983576182" y1="140.37084112569926" y2="142.7455964860345" /><path d="M 175.68104954172406 140.8457921977663 a86.0,86.0 0 0,1 -30.038265399797805,32.042727171017184" fill="none" id="id5" stroke="none" /><text fill="#e1ed5e" style="font-size:6.75px; font-family:Arial;" text-anchor="middle"><textPath startOffset="22.206326154141568" xlink:href="#id5">May</textPath></text><line stroke="#e1ed5e" stroke-width="0.3" x1="143.8653032363475" x2="146.44561519142675" y1="172.8068346515853" y2="177.08958963109032" /><path d="M 144.38136562736335 173.6633856474863 a86.0,86.0 0 0,1 -40.68145358897372,12.25698825130547" fill="none" id="id6" stroke="none" /><text fill="#e1ed5e" style="font-size:6.75px; font-family:Arial;" text-anchor="middle"><textPath startOffset="21.466115282336833" xlink:href="#id6">June</textPath></text><line stroke="#e1ed5e" stroke-width="0.3" x1="102.19456741930631" x2="102.32365962044197" y1="184.97166512339345" y2="189.96999836594603" /><path d="M 102.22038585953345 185.97133177190398 a86.0,86.0 0 0,1 -42.740103519485714,-10.115201625700543" fill="none" id="id7" stroke="none" /><text fill="#e1ed5e" style="font-size:6.75px; font-family:Arial;" text-anchor="middle"><textPath startOffset="22.20632615414155" xlink:href="#id7">July</textPath></text><line stroke="#e1ed5e" stroke-width="0.3" x1="58.666819895761336" x2="56.23545636021788" y1="174.27360380694188" y2="178.64263932499728" /><path d="M 58.180547188652646 175.14741091055294 a86.0,86.0 0 0,1 -31.652253787137756,-30.449443065178592" fill="none" id="id8" stroke="none" /><text fill="#e1ed5e" style="font-size:6.75px; font-family:Arial;" text-anchor="middle"><textPath startOffset="22.20632615414155" xlink:href="#id8">August</textPath></text><path d="M 82.44556493220864 111.52570212397912 l -13.819133992716075 9.07321832894729 a37.531538196834134,37.531538196834134 0 0,0 -0.34992822137708424,-0.5430963704638575 l 13.973267077470204 -8.834000358561983" fill="red" stroke="none" /><path d="M 82.24976979558568 111.22182372390057 l -16.115388802414497 10.188265183053359 a40.06584652443221,40.06584652443221 0 0,0 -0.3635219287876699,-0.5861130971077073 l 16.28837537087012 -9.909355754580385" fill="red" stroke="none" /><line stroke="#e1ed5e" stroke-width="0.3" x1="26.63291911575756" x2="22.317208475507996" y1="142.92168965132927" y2="145.44649492493687" /><path d="M 25.769776987707644 143.4266507060508 a86.0,86.0 0 0,1 -11.730757126820373,-40.83630448921669" fill="none" id="id9" stroke="none" /><text fill="#e1ed5e" style="font-size:6.75px; font-family:Arial;" text-anchor="middle"><textPath startOffset="21.46611528233685" xlink:href="#id9">September</textPath></text><path d="M 81.87401531095188 110.60418214915194 l -24.274535758294245 14.201247721597408 a49.12345147969718,49.12345147969718 0 0,0 -0.4207026043204328,-0.7335304517607344 l 24.515390358767057 -13.781297423978367" fill="red" stroke="none" /><path d="M 81.51974371655577 109.97397251340807 l -21.536716426675618 11.623573524852237 a45.47320199587061,45.47320199587061 0 0,0 -0.3658373057231164,-0.6920263130398022 l 21.73360624062362 -11.251132196726308" fill="red" stroke="none" /><path d="M 81.02952815118164 109.00673069616217 l -23.2071670414829 11.01821322259343 a46.689951823812805,46.689951823812805 0 0,0 -0.3384474193385684,-0.7289856315593594 l 23.393389077661293 -10.617107523755243" fill="red" stroke="none" /><path d="M 80.58989483394504 108.01547362559985 l -22.492611543940143 9.28840586173692 a45.33499655884377,45.33499655884377 0 0,0 -0.2916495008452435,-0.7238501430964076 l 22.649163659042774 -8.899856350797705" fill="red" stroke="none" /><path d="M 80.32549172779594 107.34259656027581 l -25.71971420346731 9.598688944539498 a48.452477632484516,48.452477632484516 0 0,0 -0.28489073722851715,-0.7838969531499261 l 25.88112920170105 -9.154544194383455" fill="red" stroke="none" /><path d="M 80.0844068197444 106.66101706037122 l -24.724187796541337 8.269311148605729 a47.0704232622161,47.0704232622161 0 0,0 -0.250387191730216,-0.7706125379076327 l 24.8628672392878 -7.8424997107202925" fill="red" stroke="none" /><path d="M 79.86692584326677 105.97154293290107 l -23.603708533476347 7.000945696919243 a45.620079146593255,45.620079146593255 0 0,0 -0.21681999069850974,-0.7547788317320236 l 23.720721161060958 -6.593609389682624" fill="red" stroke="none" /><path d="M 79.58551787078972 104.9243191809786 l -27.802965122808676 6.706546537686878 a49.60039573296628,49.60039573296628 0 0,0 -0.1930622988968176,-0.8317073307376888 l 27.91428798763605 -6.2269705496006145" fill="red" stroke="none" /><path d="M 79.4281124754447 104.21870165774334 l -21.914794291041236 4.494093159627001 a43.37085340674467,43.37085340674467 0 0,0 -0.14368157992427485,-0.7326292805424142 l 21.988905803941176 -4.116200152016631" fill="red" stroke="none" /><path d="M 79.29508885075956 103.50808413554451 l -24.448859251837515 4.142430491747279 a45.7973072952512,45.7973072952512 0 0,0 -0.12500101472098377,-0.778381437990365 l 24.51654202091979 -3.7209698240637006" fill="red" stroke="none" /><path d="M 79.10278846688536 102.07522291339032 l -28.270561789645654 2.8074423952364116 a49.40961803165864,49.40961803165864 0 0,0 -0.07676232076563624,-0.8470658131477843 l 28.314698706688365 -2.3203951935400613" fill="red" stroke="none" /><path d="M 79.04373962182676 101.35467743843564 l -23.249658419043342 1.5029297757923148 a44.298184790089465,44.298184790089465 0 0,0 -0.04263942684124532,-0.7613556097972674 l 23.27208419677212 -1.1025024496596099" fill="red" stroke="none" /><path d="M 79.0095281055655 100.63252640178507 l -21.94464991826616 0.66127958061364 a42.95461114934618,42.95461114934618 0 0,0 -0.015909441567118782,-0.7392492346737423 l 21.952781422518285 -0.28344053014976883" fill="red" stroke="none" /><line stroke="#e1ed5e" stroke-width="0.3" x1="15.007084014347285" x2="10.007500721073583" y1="101.09737516637583" y2="101.16192664675087" /><path d="M 14.007167355692545 101.11028546245083 a86.0,86.0 0 0,1 10.666146001902534,-42.60595125391555" fill="none" id="id10" stroke="none" /><text fill="#e1ed5e" style="font-size:6.75px; font-family:Arial;" text-anchor="middle"><textPath startOffset="22.20632615414155" xlink:href="#id10">October</textPath></text><path d="M 79.08570108090925 98.10471618934814 l -21.94220144597277 -1.9884338141812246 a43.0321145905024,43.0321145905024 0 0,0 0.07320146767354528,-0.7371287897016485 l 21.904722852617 2.3658381345873036" fill="red" stroke="none" /><path d="M 79.21141760316559 97.0276538004421 l -21.914928679828762 -3.1333909033157803 a43.13780110116999,43.13780110116999 0 0,0 0.11142721332028814,-0.7341661144291212 l 21.85774557306917 3.5101561301369935" fill="red" stroke="none" /><path d="M 79.32604984820605 96.31383870115002 l -20.115483156984638 -3.586586742084765 a41.432725395732966,41.432725395732966 0 0,0 0.13123179695898432,-0.7010455068370061 l 20.050765636115795 3.9323103263843437" fill="red" stroke="none" /><path d="M 79.71946130924805 94.55025226153421 l -26.452284868028794 -7.108207618889814 a48.39069167240193,48.39069167240193 0 0,0 0.22308853025394015,-0.8025681394874618 l 26.326009567208494 7.562487061796219" fill="red" stroke="none" /><path d="M 80.14247586403 93.16781622104843 l -59.572572407909995 -20.496551336854708 a84.0,84.0 0 0,0 0.4821876767607618,-1.3632094942935558 l 59.210931650339425 21.518958457574875" fill="red" stroke="none" /><path d="M 80.65960295795068 91.81776055985345 l -22.462247263143375 -9.502984094443427 a45.389736751548526,45.389736751548526 0 0,0 0.31061556423774406,-0.7169435479751295 l 22.29534098906295 9.888226787005156" fill="red" stroke="none" /><line stroke="#e1ed5e" stroke-width="0.3" x1="26.266209847984243" x2="21.928928074336255" y1="57.711370442889674" y2="55.22380399835377" /><path d="M 25.398753493254645 57.213857153982495 a86.0,86.0 0 0,1 29.58750427330803,-30.492523968695096" fill="none" id="id11" stroke="none" /><text fill="#e1ed5e" style="font-size:6.75px; font-family:Arial;" text-anchor="middle"><textPath startOffset="21.46611528233685" xlink:href="#id11">November</textPath></text><line stroke="#e1ed5e" stroke-width="0.3" x1="56.762969772571076" x2="54.21961505331055" y1="26.818313649435495" y2="22.513508569990535" /><path d="M 56.25429882871897 25.957352633546506 a86.0,86.0 0 0,1 42.265352541879196,-11.944610805530505" fill="none" id="id12" stroke="none" /><text fill="#e1ed5e" style="font-size:6.75px; font-family:Arial;" text-anchor="middle"><textPath startOffset="22.20632615414155" xlink:href="#id12">December</textPath></text></svg>