<?xml version="1.0" encoding="utf-8" ?>
<svg baseProfile="full" height="200mm" version="1.1" viewBox="0,0,200,200" width="200mm" xmlns="http://www.w3.org/2000/svg" xmlns:ev="http://www.w3.org/2001/xml-events" xmlns:xlink="http://www.w3.org/1999/xlink"><defs /><rect fill="#1a1a1a" height="200" width="200" x="0" y="0" /><rect fill="#1a1a1a" height="200" width="180" x="10" y="0" /><text alignment-baseline="middle" fill="#e1ed5e" style="dominant-baseline: central; font-size:9.0px; font-family:Arial;" text-anchor="middle" x="100.0" y="100.0">2025</text><line stroke="#e1ed5e" stroke-width="0.3" x1="100.0" x2="100.0" y1="15.0" y2="10.0" /><path d="M 100.0 14.0 a86.0,86.0 0 0,1 42.46469731375804,11.215312516191453" fill="none" id="id85" stroke="none" /><text fill="#e1ed5e" style="font-size:6.75px; font-family:Arial;" text-anchor="middle"><textPath startOffset="22.20632615414155" xlink:href="#id85">January</textPath></text><line stroke="#e1ed5e" stroke-width="0.3" x1="143.23703022742887" x2="145.7803849466894" y1="26.81831364943548" y2="22.513508569990506" /><path d="M 143.74570117128098 25.957352633546492 a86.0,86.0 0 0,1 28.547481713284135,27.462654790039103" fill="none" id="id86" stroke="none" /><text fill="#e1ed5e" style="font-size:6.75px; font-family:Arial;" text-anchor="middle"><textPath startOffset="19.985693538727396" xlink:href="#id86">February</textPath></text><line stroke="#e1ed5e" stroke-width="0.3" x1="172.23445277983987" x2="176.4835382374775" y1="55.19839476539836" y2="52.563006222186495" /><path d="M 173.08426987136738 54.67131705675599 a86.0,86.0 0 0,1 12.851231095245387,41.99856678651699" fill="none" id="id87" stroke="none" /><text fill="#e1ed5e" style="font-size:6.75px; font-family:Arial;" text-anchor="middle"><textPath startOffset="22.20632615414155" xlink:href="#id87">March</textPath></text><path d="M 119.04729006885535 91.15688171328212 l 25.884367032111225 -12.017379827488282 a49.538007543820726,49.538007543820726 0 0,0 0.3524220737761455,0.7765153242496022 l -26.087391422850715 11.570042494396617" fill="red" stroke="none" /><line stroke="#e1ed5e" stroke-width="0.3" x1="184.98032266829074" x2="189.97916517819016" y1="98.17113171792111" y2="98.06355123074" /><path d="M 185.9800911702706 98.14961562048488 a86.0,86.0 0 0,1 -9.607161424134198,41.387399972396054" fill="none" id="id88" stroke="none" /><text fill="#e1ed5e" style="font-size:6.75px; font-family:Arial;" text-anchor="middle"><textPath startOffset="21.466115282336823" xlink:href="#id88">April</textPath></text><line stroke="#e1ed5e" stroke-width="0.3" x1="174.80103733775053" x2="179.2010983576182" y1="140.37084112569926" y2="142.7455964860345" /><path d="M 175.68104954172406 140.8457921977663 a86.0,86.0 0 0,1 -30.038265399797805,32.042727171017184" fill="none" id="id89" stroke="none" /><text fill="#e1ed5e" style="font-size:6.75px; font-family:Arial;" text-anchor="middle"><textPath startOffset="22.206326154141568" xlink:href="#id89">May</textPath></text><path d="M 118.48025628344425 109.97397251340804 l 15.416273255309415 8.320311328441518 a38.51824938983803,38.51824938983803 0 0,0 -0.31992816001036906,0.5807625398346873 l -15.270768685847537 -8.584444386674011" fill="red" stroke="none" /><line stroke="#e1ed5e" stroke-width="0.3" x1="143.8653032363475" x2="146.44561519142675" y1="172.8068346515853" y2="177.08958963109032" /><path d="M 144.38136562736335 173.6633856474863 a86.0,86.0 0 0,1 -40.68145358897372,12.25698825130547" fill="none" id="id90" stroke="none" /><text fill="#e1ed5e" style="font-size:6.75px; font-family:Arial;" text-anchor="middle"><textPath startOffset="21.466115282336833" xlink:href="#id90">June</textPath></text><line stroke="#e1ed5e" stroke-width="0.3" x1="102.19456741930631" x2="102.32365962044197" y1="184.97166512339345" y2="189.96999836594603" /><path d="M 102.22038585953345 185.97133177190398 a86.0,86.0 0 0,1 -42.740103519485714,-10.115201625700543" fill="none" id="id91" stroke="none" /><text fill="#e1ed5e" style="font-size:6.75px; font-family:Arial;" text-anchor="middle"><textPath startOffset="22.20632615414155" xlink:href="#id91">July</textPath></text><path d="M 97.65516085044442 120.86867818915974 l -2.9360174778537877 26.130066923648805 a47.29449744841358,47.29449744841358 0 0,0 -0.8082237226096042,-0.0978646371819601 l 3.385368623514781 -26.0756567577415" fill="red" stroke="none" /><line stroke="#e1ed5e" stroke-width="0.3" x1="58.666819895761336" x2="56.23545636021788" y1="174.27360380694188" y2="178.64263932499728" /><path d="M 58.180547188652646 175.14741091055294 a86.0,86.0 0 0,1 -31.652253787137756,-30.449443065178592" fill="none" id="id92" stroke="none" /><text fill="#e1ed5e" style="font-size:6.75px; font-family:Arial;" text-anchor="middle"><textPath startOffset="22.20632615414155" xlink:href="#id92">August</textPath></text><line stroke="#e1ed5e" stroke-width="0.3" x1="26.63291911575756" x2="22.317208475507996" y1="142.92168965132927" y2="145.44649492493687" /><path d="M 25.769776987707644 143.4266507060508 a86.0,86.0 0 0,1 -11.730757126820373,-40.83630448921669" fill="none" id="id93" stroke="none" /><text fill="#e1ed5e" style="font-size:6.75px; font-family:Arial;" text-anchor="middle"><textPath startOffset="21.46611528233685" xlink:href="#id93">September</textPath></text><path d="M 79.4281124754447 104.21870165774334 l -26.760113952648442 5.487728676266868 a48.31700687818948,48.31700687818948 0 0,0 -0.16006749556813463,-0.8161807113905216 l 26.85061138119224 -5.026284237808392" fill="red" stroke="none" /><path d="M 79.23777060512086 103.15116336523772 l -29.18159672426696 4.4290031088535935 a50.51578655424895,50.51578655424895 0 0,0 -0.12308038846147977,-0.8608239502337911 l 29.25351116374504 -3.9260336866394026" fill="red" stroke="none" /><path d="M 79.18660465613746 102.79330883721812 l -30.870971052626306 4.143108552456055 a52.147747947637015,52.147747947637015 0 0,0 -0.11174142637235424,-0.890689111557744 l 30.93771398824551 -3.611101686610902" fill="red" stroke="none" /><path d="M 79.0235259727143 100.99374915477108 l -31.628073419086466 1.4983629368010518 a52.663545595739954,52.663545595739954 0 0,0 -0.035103681658756845,-0.905870043909385 l 31.649179233596424 -0.95371564587767" fill="red" stroke="none" /><line stroke="#e1ed5e" stroke-width="0.3" x1="15.007084014347285" x2="10.007500721073583" y1="101.09737516637583" y2="101.16192664675087" /><path d="M 14.007167355692545 101.11028546245083 a86.0,86.0 0 0,1 10.666146001902534,-42.60595125391555" fill="none" id="id94" stroke="none" /><text fill="#e1ed5e" style="font-size:6.75px; font-family:Arial;" text-anchor="middle"><textPath startOffset="22.20632615414155" xlink:href="#id94">October</textPath></text><path d="M 79.00019446554 99.90962569577889 l -34.97606838805799 -0.15052224363573577 a55.97639227867761,55.97639227867761 0 0,0 0.012440067825740503,-0.9634969625393196 l 34.96829531311453 0.7525554642355273" fill="red" stroke="none" /><path d="M 79.01574976396665 99.18683210126434 l -26.896342747618696 -1.0422694292026013 a47.91652984246727,47.91652984246727 0 0,0 0.039032330075070995,-0.823910796918194 l 26.874416809310127 1.5050913327438042" fill="red" stroke="none" /><line stroke="#e1ed5e" stroke-width="0.3" x1="26.266209847984243" x2="21.928928074336255" y1="57.71137044288968" y2="55.22380399835378" /><path d="M 25.398753493254645 57.2138571539825 a86.0,86.0 0 0,1 29.58750427330803,-30.4925239686951" fill="none" id="id95" stroke="none" /><text fill="#e1ed5e" style="font-size:6.75px; font-family:Arial;" text-anchor="middle"><textPath startOffset="21.46611528233685" xlink:href="#id95">November</textPath></text><path d="M 84.5562425177563 85.77008943001954 l -12.452260804909145 -11.473539250513202 a37.93224444917281,37.93224444917281 0 0,0 0.4465757323257245,-0.4763758546526002 l 12.252917750612962 11.686184522043854" fill="red" stroke="none" /><path d="M 86.65592168130627 83.78471172551755 l -20.086731249485197 -24.408739961168173 a52.61112713556689,52.61112713556689 0 0,0 0.7042290016904209,-0.5694375435226574 l 19.663598849230276 24.750883601954968" fill="red" stroke="none" /><path d="M 87.80319425747018 82.90503203632743 l -17.878798660001628 -25.058814313647126 a51.78304105072665,51.78304105072665 0 0,0 0.73006409298958,-0.5114565524617944 l 17.44480342742839 25.362855708872864" fill="red" stroke="none" /><path d="M 89.00827224532344 82.1063720568725 l -12.895136926005163 -20.99222138498198 a45.63651588631227,45.63651588631227 0 0,0 0.6728950706696794,-0.4054117510041495 l 12.531879789117838 21.211079745444753" fill="red" stroke="none" /><line stroke="#e1ed5e" stroke-width="0.3" x1="56.76296977257108" x2="54.21961505331056" y1="26.818313649435495" y2="22.513508569990535" /><path d="M 56.25429882871898 25.957352633546506 a86.0,86.0 0 0,1 42.26535254187918,-11.944610805530505" fill="none" id="id96" stroke="none" /><text fill="#e1ed5e" style="font-size:6.75px; font-family:Arial;" text-anchor="middle"><textPath startOffset="22.20632615414155" xlink:href="#id96">December</textPath></text><path d="M 90.91171255644093 81.06846463323043 l -14.65630024664925 -30.530093616490536 a54.86581983581096,54.86581983581096 0 0,0 0.8549186526279755,-0.4013957706164301 l 14.128603382721666 30.777854369746976" fill="red" stroke="none" /><path d="M 91.23893434514133 80.91482961587045 l -14.933952728363545 -32.53223335580086 a56.796216995784334,56.796216995784334 0 0,0 0.8920194270786177,-0.4002231151879842 l 14.371751182818151 32.78447680150538" fill="red" stroke="none" /><path d="M 92.23578459929587 80.48803036053334 l -10.868715184953416 -27.31377605644335 a50.39679118939982,50.39679118939982 0 0,0 0.8087889076582697,-0.31379753088182855 l 10.39694311229547 27.49681629121573" fill="red" stroke="none" /><path d="M 92.57280143429618 80.3572730644239 l -10.651273561398744 -28.169444539800146 a51.115896701918544,51.115896701918544 0 0,0 0.8256864569178313,-0.30410729033748984 l 10.164804778708344 28.34861509794396" fill="red" stroke="none" /><path d="M 93.59665428221793 80.00007090966166 l -12.892718190215076 -40.26855037202792 a63.282127801198136,63.282127801198136 0 0,0 1.0402817220458402,-0.3232205948715863 l 12.197651095458507 40.484511101782026" fill="red" stroke="none" /><path d="M 94.28887869178378 79.79150937346287 l -7.8139848118738335 -27.649358209128277 a49.732305302862216,49.732305302862216 0 0,0 0.8257980872799224,-0.22572181195707347 l 7.33688883537019 27.779766561911647" fill="red" stroke="none" /><path d="M 95.33964822691252 79.52364482259891 l -10.86502024755197 -47.73803018117193 a69.95884180164188,69.95884180164188 0 0,0 1.1764987615258395,-0.2571370607587279 l 10.041678761872609 47.91798074002653" fill="red" stroke="none" /><path d="M 96.04723909329186 79.375362276772 l -10.712709989629152 -55.89656642149666 a77.91386731750609,77.91386731750609 0 0,0 1.31935958818319,-0.2411045316062257 l 9.748955280343068 56.07268643445362" fill="red" stroke="none" /><path d="M 96.75951476605007 79.25152402106235 l -9.72145570184976 -62.24542793681294 a84.0,84.0 0 0,0 1.4305240782854025,-0.2108220633561242 l 8.648562643135707 62.403544484330034" fill="red" stroke="none" /></svg>