<?xml version="1.0" encoding="utf-8" ?>
<svg baseProfile="full" height="200mm" version="1.1" viewBox="0,0,200,200" width="200mm" xmlns="http://www.w3.org/2000/svg" xmlns:ev="http://www.w3.org/2001/xml-events" xmlns:xlink="http://www.w3.org/1999/xlink"><defs /><rect fill="#1a1a1a" height="200" width="200" x="0" y="0" /><rect fill="#1a1a1a" height="200" width="180" x="10" y="0" /><text alignment-baseline="middle" fill="#e1ed5e" style="dominant-baseline: central; font-size:9.0px; font-family:Arial;" text-anchor="middle" x="100.0" y="100.0">2019</text><line stroke="#e1ed5e" stroke-width="0.3" x1="100.0" x2="100.0" y1="15.0" y2="10.0" /><path d="M 100.0 14.0 a86.0,86.0 0 0,1 42.46469731375804,11.215312516191453" fill="none" id="id13" stroke="none" /><text fill="#e1ed5e" style="font-size:6.75px; font-family:Arial;" text-anchor="middle"><textPath startOffset="22.20632615414155" xlink:href="#id13">January</textPath></text><line stroke="#e1ed5e" stroke-width="0.3" x1="143.23703022742887" x2="145.7803849466894" y1="26.81831364943548" y2="22.513508569990506" /><path d="M 143.74570117128098 25.957352633546492 a86.0,86.0 0 0,1 28.547481713284135,27.462654790039103" fill="none" id="id14" stroke="none" /><text fill="#e1ed5e" style="font-size:6.75px; font-family:Arial;" text-anchor="middle"><textPath startOffset="19.985693538727396" xlink:href="#id14">February</textPath></text><line stroke="#e1ed5e" stroke-width="0.3" x1="172.23445277983987" x2="176.4835382374775" y1="55.19839476539836" y2="52.563006222186495" /><path d="M 173.08426987136738 54.67131705675599 a86.0,86.0 0 0,1 12.851231095245387,41.99856678651699" fill="none" id="id15" stroke="none" /><text fill="#e1ed5e" style="font-size:6.75px; font-family:Arial;" text-anchor="middle"><textPath startOffset="22.20632615414155" xlink:href="#id15">March</textPath></text><path d="M 119.61058180528143 92.48833698450437 l 51.86263044021002 -19.865530091469562 a76.53712021695833,76.53712021695833 0 0,0 0.46066384784395353,1.2343500845661068 l -52.1968988765556 18.96985686987412" fill="red" stroke="none" /><line stroke="#e1ed5e" stroke-width="0.3" x1="184.98032266829074" x2="189.97916517819016" y1="98.17113171792111" y2="98.06355123074" /><path d="M 185.9800911702706 98.14961562048488 a86.0,86.0 0 0,1 -9.607161424134198,41.387399972396054" fill="none" id="id16" stroke="none" /><text fill="#e1ed5e" style="font-size:6.75px; font-family:Arial;" text-anchor="middle"><textPath startOffset="21.466115282336823" xlink:href="#id16">April</textPath></text><path d="M 120.99980553446 99.90962569577887 l 60.92782258311545 -0.26220764590518897 a81.92838679605069,81.92838679605069 0 0,0 -0.006069343495488647,1.4103016806111768 l -60.92330894233046 -0.7866035129096725" fill="red" stroke="none" /><path d="M 120.9904718944345 100.63252640178507 l 59.34907165219692 1.7884235728593554 a80.37601169541082,80.37601169541082 0 0,0 -0.053575844460119,1.382554486602416 l -59.309493674885594 -2.8097553064757776" fill="red" stroke="none" /><path d="M 120.70491114924044 103.5080841355445 l 59.22338064919927 10.034363374526762 a81.06743929827536,81.06743929827536 0 0,0 -0.24495321113940163,1.3738276939204392 l -59.04188099572068 -11.05230981918042" fill="red" stroke="none" /><path d="M 120.23288151984713 105.62410040840565 l 58.38891182449038 16.230268660267402 a81.60269502945039,81.60269502945039 0 0,0 -0.387835705422726,1.3501069698410448 l -58.10088348218155 -17.23293310561303" fill="red" stroke="none" /><path d="M 119.9155931802556 106.66101706037122 l 49.12608628370013 16.43082864182083 a72.80100851731007,72.80100851731007 0 0,0 -0.4077174342007436,1.1850177120878533 l -48.83597801855616 -17.274019056997982" fill="red" stroke="none" /><line stroke="#e1ed5e" stroke-width="0.3" x1="174.80103733775053" x2="179.2010983576182" y1="140.37084112569926" y2="142.7455964860345" /><path d="M 175.68104954172406 140.8457921977663 a86.0,86.0 0 0,1 -30.038265399797805,32.042727171017184" fill="none" id="id17" stroke="none" /><text fill="#e1ed5e" style="font-size:6.75px; font-family:Arial;" text-anchor="middle"><textPath startOffset="22.206326154141568" xlink:href="#id17">May</textPath></text><path d="M 112.04921762599082 117.19931262002967 l 33.5329639732435 47.865674631682225 a79.44298487224034,79.44298487224034 0 0,0 -1.1267402909145343,0.7749822462575202 l -32.704066797706076 -48.43579766730484" fill="red" stroke="none" /><path d="M 111.45004920935366 117.60387380957326 l 31.709732025819275 48.75211546356458 a79.15733717530404,79.15733717530404 0 0,0 -1.1486038637534364,0.7330933301583502 l -30.86584636001891 -49.29072322254674" fill="red" stroke="none" /><line stroke="#e1ed5e" stroke-width="0.3" x1="143.8653032363475" x2="146.44561519142675" y1="172.8068346515853" y2="177.08958963109032" /><path d="M 144.38136562736335 173.6633856474863 a86.0,86.0 0 0,1 -40.68145358897372,12.25698825130547" fill="none" id="id18" stroke="none" /><text fill="#e1ed5e" style="font-size:6.75px; font-family:Arial;" text-anchor="middle"><textPath startOffset="21.466115282336833" xlink:href="#id18">June</textPath></text><path d="M 110.8373102113329 117.98757091392108 l 32.51193063399873 53.96271274176323 a84.0,84.0 0 0,0 -1.2449285158864716,0.735525710825002 l -31.578234247083873 -54.514357024881974" fill="red" stroke="none" /><line stroke="#e1ed5e" stroke-width="0.3" x1="102.19456741930631" x2="102.32365962044197" y1="184.97166512339345" y2="189.96999836594603" /><path d="M 102.22038585953345 185.97133177190398 a86.0,86.0 0 0,1 -42.740103519485714,-10.115201625700543" fill="none" id="id19" stroke="none" /><text fill="#e1ed5e" style="font-size:6.75px; font-family:Arial;" text-anchor="middle"><textPath startOffset="22.20632615414155" xlink:href="#id19">July</textPath></text><path d="M 96.93821686468263 120.77559828337769 l -7.9112173969523765 53.681226692926806 a75.26104919699986,75.26104919699986 0 0,0 -1.280026078112541,-0.1999137483353047 l 8.834079338673435 -53.5370946372444" fill="red" stroke="none" /><line stroke="#e1ed5e" stroke-width="0.3" x1="58.666819895761336" x2="56.23545636021788" y1="174.27360380694188" y2="178.64263932499728" /><path d="M 58.180547188652646 175.14741091055294 a86.0,86.0 0 0,1 -31.652253787137756,-30.449443065178592" fill="none" id="id20" stroke="none" /><text fill="#e1ed5e" style="font-size:6.75px; font-family:Arial;" text-anchor="middle"><textPath startOffset="22.20632615414155" xlink:href="#id20">August</textPath></text><line stroke="#e1ed5e" stroke-width="0.3" x1="26.63291911575756" x2="22.317208475507996" y1="142.92168965132927" y2="145.44649492493687" /><path d="M 25.769776987707644 143.4266507060508 a86.0,86.0 0 0,1 -11.730757126820373,-40.83630448921669" fill="none" id="id21" stroke="none" /><text fill="#e1ed5e" style="font-size:6.75px; font-family:Arial;" text-anchor="middle"><textPath startOffset="21.46611528233685" xlink:href="#id21">September</textPath></text><line stroke="#e1ed5e" stroke-width="0.3" x1="15.007084014347285" x2="10.007500721073583" y1="101.09737516637583" y2="101.16192664675087" /><path d="M 14.007167355692545 101.11028546245083 a86.0,86.0 0 0,1 10.666146001902534,-42.60595125391555" fill="none" id="id22" stroke="none" /><text fill="#e1ed5e" style="font-size:6.75px; font-family:Arial;" text-anchor="middle"><textPath startOffset="22.20632615414155" xlink:href="#id22">October</textPath></text><path d="M 79.00019446554 99.90962569577889 l -56.537698399706876 -0.24331440340018579 a77.53822195855756,77.53822195855756 0 0,0 0.017231920475503804,-1.3346312310703758 l 56.52513347211366 1.2164818925310337" fill="red" stroke="none" /><path d="M 79.3925641242962 95.95851677861259 l -55.44071767077244 -10.872906828368377 a77.49684308657147,77.49684308657147 0 0,0 0.26799406234819073,-1.306834224163804 l 55.24534431250925 11.825616708695584" fill="red" stroke="none" /><path d="M 79.62865764111835 94.90015583598534 l -57.80311205408084 -14.470664646326846 a80.58691046230774,80.58691046230774 0 0,0 0.3484565272960309,-1.3427451440350067 l 57.54545919491451 15.463506215910716" fill="red" stroke="none" /><path d="M 80.14247586403 93.16781622104843 l -52.6482295919052 -18.114160544151947 a76.67727446078223,76.67727446078223 0 0,0 0.44015281943561757,-1.2443712921606085 l 52.32862369165977 19.017729462739165" fill="red" stroke="none" /><path d="M 80.95270993114464 91.15688171328213 l -52.06910364515433 -24.17421275955521 a78.40717827026569,78.40717827026569 0 0,0 0.5788757397520841,-1.2192599396371484 l 51.64526971156049 25.066915114832888" fill="red" stroke="none" /><line stroke="#e1ed5e" stroke-width="0.3" x1="26.266209847984243" x2="21.928928074336255" y1="57.711370442889674" y2="55.22380399835377" /><path d="M 25.398753493254645 57.213857153982495 a86.0,86.0 0 0,1 29.58750427330803,-30.492523968695096" fill="none" id="id23" stroke="none" /><text fill="#e1ed5e" style="font-size:6.75px; font-family:Arial;" text-anchor="middle"><textPath startOffset="21.46611528233685" xlink:href="#id23">November</textPath></text><path d="M 82.7489923806493 88.02491185347247 l -46.93277012522451 -32.57920184209103 a78.13220899190642,78.13220899190642 0 0,0 0.7764383811169914,-1.098217026902348 l 46.365019124303636 33.38224536932517" fill="red" stroke="none" /><path d="M 83.17141714833178 87.43820079747576 l -45.89798264220293 -34.26083151708413 a78.27503284037458,78.27503284037458 0 0,0 0.8152682362827587,-1.0727974342796387 l 45.301438465696066 35.04581372724479" fill="red" stroke="none" /><line stroke="#e1ed5e" stroke-width="0.3" x1="56.762969772571076" x2="54.21961505331055" y1="26.818313649435495" y2="22.513508569990535" /><path d="M 56.25429882871897 25.957352633546506 a86.0,86.0 0 0,1 42.265352541879196,-11.944610805530505" fill="none" id="id24" stroke="none" /><text fill="#e1ed5e" style="font-size:6.75px; font-family:Arial;" text-anchor="middle"><textPath startOffset="22.20632615414155" xlink:href="#id24">December</textPath></text></svg>