<?xml version="1.0" encoding="utf-8" ?>
<svg baseProfile="full" height="200mm" version="1.1" viewBox="0,0,200,200" width="200mm" xmlns="http://www.w3.org/2000/svg" xmlns:ev="http://www.w3.org/2001/xml-events" xmlns:xlink="http://www.w3.org/1999/xlink"><defs /><rect fill="#1a1a1a" height="200" width="200" x="0" y="0" /><rect fill="#1a1a1a" height="200" width="180" x="10" y="0" /><text alignment-baseline="middle" fill="#e1ed5e" style="dominant-baseline: central; font-size:9.0px; font-family:Arial;" text-anchor="middle" x="100.0" y="100.0">2024</text><line stroke="#e1ed5e" stroke-width="0.3" x1="100.0" x2="100.0" y1="15.0" y2="10.0" /><path d="M 100.0 14.0 a86.0,86.0 0 0,1 42.35913384403234,11.155469271406648" fill="none" id="id73" stroke="none" /><text fill="#e1ed5e" style="font-size:6.75px; font-family:Arial;" text-anchor="middle"><textPath startOffset="22.145653131862478" xlink:href="#id73">January</textPath></text><line stroke="#e1ed5e" stroke-width="0.3" x1="143.13028292997686" x2="145.6673583964461" y1="26.7553504044142" y2="22.446841604673864" /><path d="M 143.63769802327073 25.89364864446614 a86.0,86.0 0 0,1 29.32050498858742,28.57503671076993" fill="none" id="id74" stroke="none" /><text fill="#e1ed5e" style="font-size:6.75px; font-family:Arial;" text-anchor="middle"><textPath startOffset="20.669276256404974" xlink:href="#id74">February</textPath></text><line stroke="#e1ed5e" stroke-width="0.3" x1="172.87174338648825" x2="177.1583165268699" y1="56.24261187166439" y2="53.66864786411523" /><path d="M 173.72905801456457 55.72781907015455 a86.0,86.0 0 0,1 12.242430191666344,42.057860355516425" fill="none" id="id75" stroke="none" /><text fill="#e1ed5e" style="font-size:6.75px; font-family:Arial;" text-anchor="middle"><textPath startOffset="22.145653131862474" xlink:href="#id75">March</textPath></text><line stroke="#e1ed5e" stroke-width="0.3" x1="184.99686870605535" x2="189.99668451229388" y1="99.2704041080226" y2="99.22748670261217" /><path d="M 185.99683186730306 99.26182062694052 a86.0,86.0 0 0,1 -10.086455211305974,41.156179273409016" fill="none" id="id76" stroke="none" /><text fill="#e1ed5e" style="font-size:6.75px; font-family:Arial;" text-anchor="middle"><textPath startOffset="21.40746469413373" xlink:href="#id76">April</textPath></text><line stroke="#e1ed5e" stroke-width="0.3" x1="174.33088141563837" x2="178.70328620479359" y1="141.23008692659167" y2="143.65538615756765" /><path d="M 175.20536237346943 141.71514677278685 a86.0,86.0 0 0,1 -30.301960400862466,31.631185727798858" fill="none" id="id77" stroke="none" /><text fill="#e1ed5e" style="font-size:6.75px; font-family:Arial;" text-anchor="middle"><textPath startOffset="22.145653131862474" xlink:href="#id77">May</textPath></text><path d="M 118.18653347947321 110.5 l 54.559600438419636 31.499999999999986 a84.0,84.0 0 0,0 -0.7317051594809385,1.242595326825802 l -54.010821568808936 -32.43194649511934" fill="#4dd2ff" stroke="none" /><path d="M 117.81537515405839 111.11811171558189 l 6.5442545150229074 4.084098828345527 a28.714086491418865,28.714086491418865 0 0,0 -0.2645556065339797,0.41592535498969 l -6.473181216863037 -4.195837858013889" fill="#ff4d07" stroke="none" /><path d="M 117.62189284568427 111.42229804090321 l 6.2726388103976065 4.065848693027614 a28.47510021607073,28.47510021607073 0 0,0 -0.26939554820078043,0.4078991957764679 l -6.2019188232761 -4.172927767143143" fill="#ff4a06" stroke="none" /><path d="M 117.21940702142032 112.02048342749411 l 6.445252355386507 4.499286707583178 a28.8603345222484,28.8603345222484 0 0,0 -0.2870708634796301,0.4038011203532603 l -6.367066393376916 -4.609265054645943" fill="#ff4f07" stroke="none" /><path d="M 115.89218393027572 113.72728997021213 l 5.83861518844903 5.043256739788689 a28.715171149249493,28.715171149249493 0 0,0 -0.32542347762176227,0.370272180369721 l -5.751180646868682 -5.142741197969704" fill="#ff4d07" stroke="none" /><path d="M 112.7482090630111 116.68781488649013 l 1.4718546784027253 1.9267050211990822 a23.42457180406144,23.42457180406144 0 0,0 -0.32163834598791685,0.24136341108984496 l -1.4385633435040421 -1.9516874595529419" fill="#ff0000" stroke="none" /><path d="M 112.45986205192187 116.90419585922612 l 4.687343921448717 6.3592822599107635 a28.900105309371387,28.900105309371387 0 0,0 -0.4018752167870742,0.29092666522085486 l -4.577487694287674 -6.438809696504696" fill="#ff5007" stroke="none" /><path d="M 111.5731344415666 117.5232005979908 l 4.221756386102259 6.392277252376272 a28.660576705107935,28.660576705107935 0 0,0 -0.41286839243310497,0.26761630384073637 l -4.111402361412145 -6.463807397920903" fill="#ff4c07" stroke="none" /><line stroke="#e1ed5e" stroke-width="0.3" x1="143.1302829299769" x2="145.66735839644613" y1="173.24464959558577" y2="177.55315839532614" /><path d="M 143.63769802327073 174.10635135553383 a86.0,86.0 0 0,1 -40.68552437913181,11.842963189579606" fill="none" id="id78" stroke="none" /><text fill="#e1ed5e" style="font-size:6.75px; font-family:Arial;" text-anchor="middle"><textPath startOffset="21.407464694133747" xlink:href="#id78">June</textPath></text><path d="M 110.65571695917076 118.09573695890943 l 3.0603421398934363 5.197130008236186 a27.031239867201155,27.031239867201155 0 0,0 -0.4018741280767848,0.23202213602547872 l -2.970675543956253 -5.248899041537837" fill="#ff3505" stroke="none" /><path d="M 109.3889696526874 118.78422872680471 l 3.2491233500262546 6.500423201498574 a28.267207465200563,28.267207465200563 0 0,0 -0.435906924742282,0.21322392046600908 l -3.1370561760219036 -6.555240872061806" fill="#ff4706" stroke="none" /><path d="M 108.73861861582097 119.09545874513695 l 3.2743396857720946 7.155023137641725 a28.868650232283205,28.868650232283205 0 0,0 -0.452394565194914,0.20235033478512224 l -3.151031717721554 -7.210177223336697" fill="#ff4f07" stroke="none" /><path d="M 106.72888874123015 119.89276391827305 l 2.437655057838559 7.206494035581524 a28.60760924771232,28.60760924771232 0 0,0 -0.4665455094095179,0.15336277571421555 l -2.3135868107813073 -7.247277732697759" fill="#ff4c07" stroke="none" /><line stroke="#e1ed5e" stroke-width="0.3" x1="101.45913802915013" x2="101.54496967792366" y1="184.9874750549273" y2="189.98673829345242" /><path d="M 101.47630435890484 185.9873277026323 a86.0,86.0 0 0,1 -42.54439059252881,-10.42667462771756" fill="none" id="id79" stroke="none" /><text fill="#e1ed5e" style="font-size:6.75px; font-family:Arial;" text-anchor="middle"><textPath startOffset="22.145653131862474" xlink:href="#id79">July</textPath></text><line stroke="#e1ed5e" stroke-width="0.3" x1="58.13341422392154" x2="55.67067388415222" y1="173.97424548756322" y2="178.32567169271397" /><path d="M 57.64086615596768 174.84453072859336 a86.0,86.0 0 0,1 -31.369924170532247,-30.572349798747897" fill="none" id="id80" stroke="none" /><text fill="#e1ed5e" style="font-size:6.75px; font-family:Arial;" text-anchor="middle"><textPath startOffset="22.145653131862474" xlink:href="#id80">August</textPath></text><line stroke="#e1ed5e" stroke-width="0.3" x1="26.387840678322732" x2="22.057713659400548" y1="142.50000000000003" y2="145.00000000000006" /><path d="M 25.521815274538298 143.00000000000003 a86.0,86.0 0 0,1 -11.493303480769221,-40.785679425670985" fill="none" id="id81" stroke="none" /><text fill="#e1ed5e" style="font-size:6.75px; font-family:Arial;" text-anchor="middle"><textPath startOffset="21.40746469413373" xlink:href="#id81">September</textPath></text><line stroke="#e1ed5e" stroke-width="0.3" x1="15.003131293944662" x2="10.003315487706104" y1="100.72959589197737" y2="100.7725132973878" /><path d="M 14.003168132696942 100.73817937305945 a86.0,86.0 0 0,1 10.791469493833604,-42.45332614584628" fill="none" id="id82" stroke="none" /><text fill="#e1ed5e" style="font-size:6.75px; font-family:Arial;" text-anchor="middle"><textPath startOffset="22.145653131862435" xlink:href="#id82">October</textPath></text><path d="M 79.00696218219943 99.45929381324524 l -7.784177002648016 -0.20049278721143585 a28.78675856607087,28.78675856607087 0 0,0 0.01696405464767729,-0.49388994165999794 l 7.779588261003488 0.3340889934355723" fill="#ff4e07" stroke="none" /><line stroke="#e1ed5e" stroke-width="0.3" x1="26.387840678322718" x2="22.05771365940052" y1="57.49999999999999" y2="54.99999999999999" /><path d="M 25.521815274538284 56.99999999999999 a86.0,86.0 0 0,1 29.574782752854787,-30.34633250058573" fill="none" id="id83" stroke="none" /><text fill="#e1ed5e" style="font-size:6.75px; font-family:Arial;" text-anchor="middle"><textPath startOffset="21.40746469413373" xlink:href="#id83">November</textPath></text><line stroke="#e1ed5e" stroke-width="0.3" x1="56.869717070023135" x2="54.33264160355391" y1="26.7553504044142" y2="22.446841604673864" /><path d="M 56.362301976729285 25.89364864446614 a86.0,86.0 0 0,1 42.16139366436587,-11.88097634709845" fill="none" id="id84" stroke="none" /><text fill="#e1ed5e" style="font-size:6.75px; font-family:Arial;" text-anchor="middle"><textPath startOffset="22.145653131862474" xlink:href="#id84">December</textPath></text></svg>