<?xml version="1.0" encoding="utf-8" ?>
<svg baseProfile="full" height="200mm" version="1.1" viewBox="0,0,200,200" width="200mm" xmlns="http://www.w3.org/2000/svg" xmlns:ev="http://www.w3.org/2001/xml-events" xmlns:xlink="http://www.w3.org/1999/xlink"><defs /><rect fill="#1a1a1a" height="200" width="200" x="0" y="0" /><rect fill="#1a1a1a" height="200" width="180" x="10" y="0" /><text alignment-baseline="middle" fill="#e1ed5e" style="dominant-baseline: central; font-size:9.0px; font-family:Arial;" text-anchor="middle" x="100.0" y="100.0">2024</text><line stroke="#e1ed5e" stroke-width="0.3" x1="100.0" x2="100.0" y1="15.0" y2="10.0" /><path d="M 100.0 14.0 a86.0,86.0 0 0,1 42.35913384403234,11.155469271406648" fill="none" id="id73" stroke="none" /><text fill="#e1ed5e" style="font-size:6.75px; font-family:Arial;" text-anchor="middle"><textPath startOffset="22.145653131862478" xlink:href="#id73">January</textPath></text><line stroke="#e1ed5e" stroke-width="0.3" x1="143.13028292997686" x2="145.6673583964461" y1="26.7553504044142" y2="22.446841604673864" /><path d="M 143.63769802327073 25.89364864446614 a86.0,86.0 0 0,1 29.32050498858742,28.57503671076992" fill="none" id="id74" stroke="none" /><text fill="#e1ed5e" style="font-size:6.75px; font-family:Arial;" text-anchor="middle"><textPath startOffset="20.669276256404974" xlink:href="#id74">February</textPath></text><line stroke="#e1ed5e" stroke-width="0.3" x1="172.87174338648825" x2="177.1583165268699" y1="56.24261187166439" y2="53.66864786411523" /><path d="M 173.72905801456457 55.72781907015455 a86.0,86.0 0 0,1 12.242430191666344,42.057860355516425" fill="none" id="id75" stroke="none" /><text fill="#e1ed5e" style="font-size:6.75px; font-family:Arial;" text-anchor="middle"><textPath startOffset="22.145653131862474" xlink:href="#id75">March</textPath></text><line stroke="#e1ed5e" stroke-width="0.3" x1="184.99686870605535" x2="189.99668451229388" y1="99.2704041080226" y2="99.22748670261217" /><path d="M 185.99683186730306 99.26182062694052 a86.0,86.0 0 0,1 -10.086455211305974,41.156179273409016" fill="none" id="id76" stroke="none" /><text fill="#e1ed5e" style="font-size:6.75px; font-family:Arial;" text-anchor="middle"><textPath startOffset="21.40746469413373" xlink:href="#id76">April</textPath></text><line stroke="#e1ed5e" stroke-width="0.3" x1="174.33088141563837" x2="178.70328620479359" y1="141.23008692659167" y2="143.65538615756765" /><path d="M 175.20536237346943 141.71514677278685 a86.0,86.0 0 0,1 -30.301960400862466,31.63118572779886" fill="none" id="id77" stroke="none" /><text fill="#e1ed5e" style="font-size:6.75px; font-family:Arial;" text-anchor="middle"><textPath startOffset="22.145653131862474" xlink:href="#id77">May</textPath></text><path d="M 118.18653347947321 110.5 l 54.55960043841964 31.499999999999986 a84.0,84.0 0 0,0 -0.7317051594809478,1.242595326825802 l -54.010821568808936 -32.43194649511934" fill="#4dd2ff" stroke="none" /><path d="M 117.81537515405839 111.11811171558189 l 3.2830882505170633 2.048889884479802 a24.86996359406737,24.86996359406737 0 0,0 -0.22913799835048734,0.36024299221688116 l -3.247432560540686 -2.1049465513753574" fill="#ff0d01" stroke="none" /><path d="M 117.62189284568427 111.42229804090321 l 3.146825468184231 2.039734249610309 a24.750070177509514,24.750070177509514 0 0,0 -0.23415400377467105,0.3545390058054852 l -3.111347025488833 -2.0934531337548554" fill="#ff0b01" stroke="none" /><path d="M 117.21940702142032 112.02048342749411 l 3.23342135166221 2.2571792236173813 a24.943332560780924,24.943332560780924 0 0,0 -0.2481088363949118,0.3489961499102753 l -3.1941974167373375 -2.3123526002371606" fill="#ff0e01" stroke="none" /><path d="M 116.1254893667686 113.45245675266167 l 2.455151004547907 2.0481742884652094 a24.197308926435255,24.197308926435255 0 0,0 -0.26882684385881767,0.31667734611020576 l -2.4196295971819746 -2.09001841702497" fill="#ff0300" stroke="none" /><path d="M 115.89218393027572 113.72728997021213 l 2.9290867096449404 2.530075336882476 a24.87050773967959,24.87050773967959 0 0,0 -0.28185265122743375,0.32069657811925906 l -2.885222994458921 -2.5799841928130287" fill="#ff0d01" stroke="none" /><path d="M 115.16444852881244 114.52719865689866 l 2.8015068190897443 2.6837801600398925 a24.87957683321649,24.87957683321649 0 0,0 -0.2980966625247531,0.3058734366330344 l -2.7550233554141816 -2.731476288740664" fill="#ff0d01" stroke="none" /><path d="M 113.86319453409587 115.77377054828091 l 2.4152680085328457 2.748131629077306 a24.658653714657525,24.658653714657525 0 0,0 -0.32035174927526,0.27671221111332056 l -2.3677367794947304 -2.7891879726553443" fill="#ff0a01" stroke="none" /><path d="M 112.7482090630111 116.68781488649013 l 2.24832054084294 2.9431237600223583 a24.703636418600567,24.703636418600567 0 0,0 -0.33920093925421974,0.25454270849394756 l -2.197466612677954 -2.981285495780321" fill="#ff0a01" stroke="none" /><path d="M 112.45986205192187 116.90419585922612 l 2.3515228081845163 3.190292312333998 a24.96328456656211,24.96328456656211 0 0,0 -0.34713110175593276,0.2512961476840762 l -2.2964106960546156 -3.2301892313911518" fill="#ff0e01" stroke="none" /><path d="M 111.5731344415666 117.5232005979908 l 2.117949226445878 3.2068450719861077 a24.84311907719814,24.84311907719814 0 0,0 -0.3578762124001151,0.2319710371400223 l -2.0625873817887532 -3.2427299508300242" fill="#ff0c01" stroke="none" /><line stroke="#e1ed5e" stroke-width="0.3" x1="143.1302829299769" x2="145.6673583964461" y1="173.24464959558577" y2="177.55315839532614" /><path d="M 143.63769802327073 174.10635135553383 a86.0,86.0 0 0,1 -40.685524379131806,11.842963189579606" fill="none" id="id78" stroke="none" /><text fill="#e1ed5e" style="font-size:6.75px; font-family:Arial;" text-anchor="middle"><textPath startOffset="21.407464694133747" xlink:href="#id78">June</textPath></text><path d="M 110.65571695917076 118.09573695890943 l 1.535296846872592 2.607269693940099 a24.025721676717048,24.025721676717048 0 0,0 -0.357191012979081,0.20622432749558986 l -1.49031336603311 -2.6332409187118606" fill="#ff0000" stroke="none" /><path d="M 109.3889696526874 118.78422872680471 l 1.6300036421970512 3.26109918054643 a24.645775601835123,24.645775601835123 0 0,0 -0.38006103941148844,0.18590689947771652 l -1.5737823535234934 -3.28859983012137" fill="#ff0901" stroke="none" /><path d="M 108.73861861582097 119.09545874513695 l 1.6426540449920863 3.5894955401634565 a24.947504343807896,24.947504343807896 0 0,0 -0.3909471100832479,0.1748656696937495 l -1.5807935320532114 -3.6171649607670564" fill="#ff0e01" stroke="none" /><path d="M 107.74402155503746 119.51999308798841 l 1.270249313858725 3.2018580591908443 a24.444623107186608,24.444623107186608 0 0,0 -0.391379062929894,0.15139382932114898 l -1.2150979884353028 -3.223191776650034" fill="#ff0601" stroke="none" /><path d="M 106.72888874123015 119.89276391827305 l 1.2229103652419997 3.6153171979064123 a24.81654663313501,24.81654663313501 0 0,0 -0.404719188188258,0.1330392359020077 l -1.1606684394060076 -3.6357773552104393" fill="#ff0c01" stroke="none" /><line stroke="#e1ed5e" stroke-width="0.3" x1="101.45913802915013" x2="101.54496967792366" y1="184.9874750549273" y2="189.98673829345242" /><path d="M 101.47630435890484 185.9873277026323 a86.0,86.0 0 0,1 -42.54439059252881,-10.42667462771756" fill="none" id="id79" stroke="none" /><text fill="#e1ed5e" style="font-size:6.75px; font-family:Arial;" text-anchor="middle"><textPath startOffset="22.145653131862474" xlink:href="#id79">July</textPath></text><line stroke="#e1ed5e" stroke-width="0.3" x1="58.13341422392154" x2="55.670673884152215" y1="173.97424548756322" y2="178.32567169271397" /><path d="M 57.64086615596767 174.84453072859336 a86.0,86.0 0 0,1 -31.369924170532244,-30.572349798747886" fill="none" id="id80" stroke="none" /><text fill="#e1ed5e" style="font-size:6.75px; font-family:Arial;" text-anchor="middle"><textPath startOffset="22.145653131862474" xlink:href="#id80">August</textPath></text><line stroke="#e1ed5e" stroke-width="0.3" x1="26.387840678322732" x2="22.057713659400548" y1="142.50000000000003" y2="145.00000000000006" /><path d="M 25.521815274538298 143.00000000000003 a86.0,86.0 0 0,1 -11.493303480769221,-40.785679425670985" fill="none" id="id81" stroke="none" /><text fill="#e1ed5e" style="font-size:6.75px; font-family:Arial;" text-anchor="middle"><textPath startOffset="21.40746469413373" xlink:href="#id81">September</textPath></text><line stroke="#e1ed5e" stroke-width="0.3" x1="15.003131293944662" x2="10.003315487706104" y1="100.72959589197737" y2="100.7725132973878" /><path d="M 14.003168132696942 100.73817937305945 a86.0,86.0 0 0,1 10.791469493833604,-42.453326145846276" fill="none" id="id82" stroke="none" /><text fill="#e1ed5e" style="font-size:6.75px; font-family:Arial;" text-anchor="middle"><textPath startOffset="22.145653131862435" xlink:href="#id82">October</textPath></text><path d="M 79.00077361379809 99.81974689727619 l -3.814229534052714 -0.03274057317014142 a24.814370050686154,24.814370050686154 0 0,0 0.007312639352127828,-0.42592458157404794 l 3.81310546310192 0.09821207071324171" fill="#ff0c01" stroke="none" /><path d="M 79.00696218219943 99.45929381324524 l -3.9051262445053876 -0.1005821996220113 a24.906421350085722,24.906421350085722 0 0,0 0.014677369523601764,-0.4273155992648513 l 3.9028241879849355 0.1676040634510011" fill="#ff0d01" stroke="none" /><line stroke="#e1ed5e" stroke-width="0.3" x1="26.387840678322718" x2="22.05771365940052" y1="57.5" y2="55.0" /><path d="M 25.521815274538284 57.0 a86.0,86.0 0 0,1 29.574782752854787,-30.346332500585742" fill="none" id="id83" stroke="none" /><text fill="#e1ed5e" style="font-size:6.75px; font-family:Arial;" text-anchor="middle"><textPath startOffset="21.40746469413373" xlink:href="#id83">November</textPath></text><line stroke="#e1ed5e" stroke-width="0.3" x1="56.869717070023135" x2="54.33264160355391" y1="26.7553504044142" y2="22.446841604673864" /><path d="M 56.362301976729285 25.89364864446614 a86.0,86.0 0 0,1 42.16139366436587,-11.88097634709845" fill="none" id="id84" stroke="none" /><text fill="#e1ed5e" style="font-size:6.75px; font-family:Arial;" text-anchor="middle"><textPath startOffset="22.145653131862474" xlink:href="#id84">December</textPath></text></svg>